<?xml version="1.0" encoding="UTF-8" standalone="no"?>
<!DOCTYPE svg PUBLIC "-//W3C//DTD SVG 1.0//EN" "http://www.w3.org/TR/2001/PR-SVG-20010719/DTD/svg10.dtd">
<svg width="44cm" height="27cm" viewBox="73 6 866 532" xmlns="http://www.w3.org/2000/svg" xmlns:xlink="http://www.w3.org/1999/xlink">
  <g>
    <rect style="fill: #7f7f7f" x="742" y="41" width="196" height="159"/>
    <rect style="fill: none; fill-opacity:0; stroke-width: 2; stroke: #000000" x="742" y="41" width="196" height="159"/>
  </g>
  <g>
    <rect style="fill: #695276" x="362" y="96" width="332" height="266"/>
    <rect style="fill: none; fill-opacity:0; stroke-width: 2; stroke: #000000" x="362" y="96" width="332" height="266"/>
  </g>
  <g>
    <line style="fill: none; fill-opacity:0; stroke-width: 2; stroke: #000000" x1="374.45" y1="154.5" x2="124.127" y2="236.138"/>
    <polygon style="fill: #000000" points="122.576,231.384 114.619,239.238 125.677,240.891 "/>
    <polygon style="fill: none; fill-opacity:0; stroke-width: 2; stroke: #000000" points="122.576,231.384 114.619,239.238 125.677,240.891 "/>
  </g>
  <g>
    <rect style="fill: #e5e5e5" x="855.102" y="97" width="69.898" height="54"/>
    <rect style="fill: none; fill-opacity:0; stroke-width: 2; stroke: #000000" x="855.102" y="97" width="69.898" height="54"/>
    <text font-size="12.8" style="fill: #000000;text-anchor:middle;font-family:sans-serif;font-style:normal;font-weight:normal" x="890.051" y="127.9">
      <tspan x="890.051" y="127.9">Nagios</tspan>
    </text>
  </g>
  <g>
    <line style="fill: none; fill-opacity:0; stroke-width: 2; stroke: #000000" x1="685.492" y1="181.364" x2="756.16" y2="132.368"/>
    <polygon style="fill: #000000" points="759.009,136.477 764.378,126.67 753.311,128.259 "/>
    <polygon style="fill: none; fill-opacity:0; stroke-width: 2; stroke: #000000" points="759.009,136.477 764.378,126.67 753.311,128.259 "/>
  </g>
  <g>
    <path style="fill: #b7b79d" d="M 82.262 112.393 L 82.262,81.5408 L 94.7378,81.5408 L 94.7378,112.393 L 82.262,112.393z"/>
    <path style="fill: none; fill-opacity:0; stroke-width: 0.02; stroke: #494936" d="M 82.262 112.393 L 82.262,81.5408 L 94.7378,81.5408 L 94.7378,112.393 L 82.262,112.393"/>
    <path style="fill: #a5a585" d="M 94.7378 112.393 L 94.7378,81.5408 L 107.224,81.5408 L 107.224,112.393 L 94.7378,112.393z"/>
    <path style="fill: none; fill-opacity:0; stroke-width: 0.02; stroke: #494936" d="M 94.7378 112.393 L 94.7378,81.5408 L 107.224,81.5408 L 107.224,112.393 L 94.7378,112.393"/>
    <path style="fill: #7a7a5a" d="M 113.74 105.852 L 113.74,75 L 107.224,81.5408 L 107.224,112.393 L 113.74,105.852z"/>
    <path style="fill: none; fill-opacity:0; stroke-width: 0.02; stroke: #494936" d="M 113.74 105.852 L 113.74,75 L 107.224,81.5408 L 107.224,112.393 L 113.74,105.852"/>
    <path style="fill: #c9c9b6" d="M 88.7731 75 L 82.262,81.5408 L 107.224,81.5408 L 113.74,75 L 88.7731,75z"/>
    <path style="fill: none; fill-opacity:0; stroke-width: 0.02; stroke: #494936" d="M 88.7731 75 L 82.262,81.5408 L 107.224,81.5408 L 113.74,75 L 88.7731,75"/>
    <path style="fill: none; fill-opacity:0; stroke-width: 0.02; stroke: #7a7a5a" d="M 100.514 75.745 L 95.4877,80.7909"/>
    <path style="fill: #b7b79d" d="M 88.5843 112.199 L 82.262,112.199 L 82.267,112.338 L 82.2918,112.477 L 82.3315,112.621 L 82.3862,112.76 L 82.4656,112.894 L 82.5501,113.038 L 82.6544,113.172 L 82.7735,113.296 L 82.9027,113.426 L 83.0517,113.555 L 83.2156,113.679 L 83.3944,113.793 L 83.5831,113.907 L 83.7867,114.022 L 84.0003,114.126 L 84.2238,114.225 L 84.4671,114.325 L 84.7154,114.409 L 84.9687,114.493 L 85.2419,114.573 L 85.515,114.642 L 85.7981,114.712 L 86.0912,114.767 L 86.3891,114.816 L 86.6871,114.866 L 87,114.901 L 87.3079,114.94 L 87.6258,114.96 L 87.9486,114.98 L 88.2665,114.99 L 88.5843,114.995 L 88.9022,114.99 L 89.22,114.98 L 89.5379,114.96 L 89.8557,114.94 L 90.1686,114.901 L 90.4766,114.866 L 90.7745,114.816 L 91.0775,114.767 L 91.3705,114.712 L 91.6536,114.642 L 91.9317,114.573 L 92.1999,114.493 L 92.4582,114.409 L 92.7065,114.325 L 92.9399,114.225 L 93.1733,114.126 L 93.377,114.022 L 93.5856,113.907 L 93.7793,113.793 L 93.9531,113.679 L 94.117,113.555 L 94.266,113.426 L 94.3901,113.296 L 94.5093,113.172 L 94.6186,113.038 L 94.703,112.894 L 94.7775,112.76 L 94.8371,112.621 L 94.8719,112.477 L 94.9017,112.338 L 94.9116,112.199 L 88.5843,112.199z"/>
    <path style="fill: none; fill-opacity:0; stroke-width: 0.02; stroke: #494936" d="M 82.262 112.199 L 82.267,112.338 L 82.2918,112.477 L 82.3315,112.621 L 82.3862,112.76 L 82.4656,112.894 L 82.5501,113.038 L 82.6544,113.172 L 82.7735,113.296 L 82.9027,113.426 L 83.0517,113.555 L 83.2156,113.679 L 83.3944,113.793 L 83.5831,113.907 L 83.7867,114.022 L 84.0052,114.126 L 84.2337,114.225 L 84.4671,114.325 L 84.7154,114.409 L 84.9737,114.493 L 85.2419,114.573 L 85.52,114.642 L 85.7981,114.712 L 86.0912,114.767 L 86.3891,114.816 L 86.6921,114.866 L 87.005,114.901 L 87.3079,114.94 L 87.6258,114.96 L 87.9486,114.98 L 88.2665,114.99 L 88.5943,114.995 L 88.9071,114.99 L 89.23,114.98 L 89.5429,114.96 L 89.8657,114.94 L 90.1686,114.901 L 90.4766,114.866 L 90.7845,114.816 L 91.0825,114.767 L 91.3755,114.712 L 91.6536,114.642 L 91.9317,114.573 L 92.1999,114.493 L 92.4582,114.409 L 92.7065,114.325 L 92.9548,114.225 L 93.1733,114.126 L 93.3869,114.022 L 93.5905,113.907 L 93.7842,113.793 L 93.9581,113.679 L 94.1219,113.555 L 94.2759,113.426 L 94.405,113.296 L 94.5242,113.172 L 94.6236,113.038 L 94.708,112.894 L 94.7875,112.76 L 94.8421,112.621 L 94.8768,112.477 L 94.9116,112.338 L 94.9166,112.199"/>
    <path style="fill: #93936c" d="M 91.0179 83.9744 L 91.0179,85.4693 L 91.0179,87.153 L 91.0179,89.2091 L 91.0179,91.2652 L 91.0179,95.9337 L 91.0179,100.796 L 91.0179,103.046 L 91.0179,105.286 L 91.0179,107.158 L 91.0179,108.842 L 91.0179,110.336 L 91.0179,111.454 L 91.0179,112.02 L 91.0179,112.393 L 94.7378,112.393 L 94.7378,81.7246 L 94.554,81.7246 L 94.7378,81.9183 L 94.7378,82.1021 L 94.1865,82.6633 L 93.2429,83.2245 L 92.1354,83.597 L 91.0179,83.9744z"/>
    <path style="fill: #93936c" d="M 91.0179 114.632 L 92.3191,114.26 L 93.4366,113.704 L 93.9928,113.51 L 94.3703,113.138 L 94.554,112.576 L 94.7378,112.204 L 94.3703,112.204 L 93.9928,112.204 L 93.4366,112.204 L 92.3191,112.204 L 91.0179,112.204 L 91.0179,112.954 L 91.0179,113.704 L 91.0179,114.076 L 91.0179,114.449 L 91.0179,114.632z"/>
    <path style="fill: #c9c9b6" d="M 82.8182 81.1684 L 82.262,81.7246 L 94.7378,81.7246 L 94.7378,81.1684 L 82.8182,81.1684z"/>
    <path style="fill: #c9c9b6" d="M 88.5843 81.5359 L 82.262,81.5359 L 82.267,81.67 L 82.2918,81.819 L 82.3315,81.958 L 82.3862,82.1021 L 82.4656,82.2362 L 82.5501,82.3752 L 82.6544,82.5093 L 82.7735,82.6384 L 82.9027,82.7626 L 83.0517,82.8917 L 83.2156,83.0159 L 83.3944,83.1301 L 83.5831,83.2444 L 83.7867,83.3586 L 84.0003,83.4629 L 84.2238,83.5622 L 84.4671,83.6566 L 84.7154,83.746 L 84.9687,83.8304 L 85.2419,83.9049 L 85.515,83.9794 L 85.7981,84.0489 L 86.0912,84.1085 L 86.3891,84.1532 L 86.6871,84.2078 L 87,84.2426 L 87.3079,84.2774 L 87.6258,84.2972 L 87.9486,84.3171 L 88.2665,84.327 L 88.5843,84.332 L 88.9022,84.327 L 89.22,84.3171 L 89.5379,84.2972 L 89.8557,84.2774 L 90.1686,84.2426 L 90.4766,84.2078 L 90.7745,84.1532 L 91.0775,84.1085 L 91.3705,84.0489 L 91.6536,83.9794 L 91.9317,83.9049 L 92.1999,83.8304 L 92.4582,83.746 L 92.7065,83.6566 L 92.9399,83.5622 L 93.1733,83.4629 L 93.377,83.3586 L 93.5856,83.2444 L 93.7793,83.1301 L 93.9531,83.0159 L 94.117,82.8917 L 94.266,82.7626 L 94.3901,82.6384 L 94.5093,82.5093 L 94.6186,82.3752 L 94.703,82.2362 L 94.7775,82.1021 L 94.8371,81.958 L 94.8719,81.819 L 94.9017,81.67 L 94.9116,81.5359 L 88.5843,81.5359z"/>
    <path style="fill: none; fill-opacity:0; stroke-width: 0.02; stroke: #494936" d="M 82.262 81.5359 L 82.267,81.67 L 82.2918,81.819 L 82.3315,81.958 L 82.3862,82.1021 L 82.4656,82.2362 L 82.5501,82.3752 L 82.6544,82.5093 L 82.7735,82.6384 L 82.9027,82.7626 L 83.0517,82.8917 L 83.2156,83.0159 L 83.3944,83.1301 L 83.5831,83.2444 L 83.7867,83.3586 L 84.0052,83.4629 L 84.2337,83.5622 L 84.4671,83.6566 L 84.7154,83.746 L 84.9737,83.8304 L 85.2419,83.9049 L 85.52,83.9794 L 85.7981,84.0489 L 86.0912,84.1085 L 86.3891,84.1532 L 86.6921,84.2078 L 87.005,84.2426 L 87.3079,84.2774 L 87.6258,84.2972 L 87.9486,84.3171 L 88.2665,84.327 L 88.5943,84.332 L 88.9071,84.327 L 89.23,84.3171 L 89.5429,84.2972 L 89.8657,84.2774 L 90.1686,84.2426 L 90.4766,84.2078 L 90.7845,84.1532 L 91.0825,84.1085 L 91.3755,84.0489 L 91.6536,83.9794 L 91.9317,83.9049 L 92.1999,83.8304 L 92.4582,83.746 L 92.7065,83.6566 L 92.9548,83.5622 L 93.1733,83.4629 L 93.3869,83.3586 L 93.5905,83.2444 L 93.7842,83.1301 L 93.9581,83.0159 L 94.1219,82.8917 L 94.2759,82.7626 L 94.405,82.6384 L 94.5242,82.5093 L 94.6236,82.3752 L 94.708,82.2362 L 94.7875,82.1021 L 94.8421,81.958 L 94.8768,81.819 L 94.9116,81.67 L 94.9166,81.5359"/>
    <path style="fill: none; fill-opacity:0; stroke-width: 0.02; stroke: #7a7a5a" d="M 83.3795 81.5408 L 93.6203,81.5408"/>
    <path style="fill: #93936c" d="M 94.9265 112.204 L 94.9265,81.7246 L 97.1664,81.7246 L 97.1664,112.204 L 94.9265,112.204z"/>
    <path style="fill: #93936c" d="M 96.7889 90.699 L 96.7889,83.597 L 105.172,83.597 L 105.172,90.699 L 96.7889,90.699z"/>
    <path style="fill: none; fill-opacity:0; stroke-width: 0.02; stroke: #494936" d="M 96.7889 90.699 L 96.7889,83.597 L 105.172,83.597 L 105.172,90.699 L 96.7889,90.699"/>
    <path style="fill: #7a7a5a" d="M 96.9727 90.699 L 96.9727,83.7907 L 97.1664,83.7907 L 97.1664,90.699 L 96.9727,90.699z"/>
    <path style="fill: #d4000a" d="M 82.4507 82.1021 L 83.007,82.6633 L 83.007,113.326 L 82.4507,112.77 L 82.4507,82.1021z"/>
    <path style="fill: none; fill-opacity:0; stroke-width: 0.02; stroke: #494936" d="M 82.262 81.5359 L 82.267,81.67 L 82.2918,81.819 L 82.3315,81.958 L 82.3862,82.1021 L 82.4656,82.2362 L 82.5501,82.3752 L 82.6544,82.5093 L 82.7735,82.6384 L 82.9027,82.7626 L 83.0517,82.8917 L 83.2156,83.0159 L 83.3944,83.1301 L 83.5831,83.2444 L 83.7867,83.3586 L 84.0052,83.4629 L 84.2337,83.5622 L 84.4671,83.6566 L 84.7154,83.746 L 84.9737,83.8304 L 85.2419,83.9049 L 85.52,83.9794 L 85.7981,84.0489 L 86.0912,84.1085 L 86.3891,84.1532 L 86.6921,84.2078 L 87.005,84.2426 L 87.3079,84.2774 L 87.6258,84.2972 L 87.9486,84.3171 L 88.2665,84.327 L 88.5943,84.332 L 88.9071,84.327 L 89.23,84.3171 L 89.5429,84.2972 L 89.8657,84.2774 L 90.1686,84.2426 L 90.4766,84.2078 L 90.7845,84.1532 L 91.0825,84.1085 L 91.3755,84.0489 L 91.6536,83.9794 L 91.9317,83.9049 L 92.1999,83.8304 L 92.4582,83.746 L 92.7065,83.6566 L 92.9548,83.5622 L 93.1733,83.4629 L 93.3869,83.3586 L 93.5905,83.2444 L 93.7842,83.1301 L 93.9581,83.0159 L 94.1219,82.8917 L 94.2759,82.7626 L 94.405,82.6384 L 94.5242,82.5093 L 94.6236,82.3752 L 94.708,82.2362 L 94.7875,82.1021 L 94.8421,81.958 L 94.8768,81.819 L 94.9116,81.67 L 94.9166,81.5359"/>
    <path style="fill: none; fill-opacity:0; stroke-width: 0.02; stroke: #494936" d="M 82.262 112.283 L 82.267,112.417 L 82.2868,112.552 L 82.3315,112.691 L 82.3862,112.82 L 82.4507,112.954 L 82.5352,113.088 L 82.6345,113.212 L 82.7586,113.341 L 82.8729,113.46 L 83.0219,113.59 L 83.1758,113.704 L 83.3546,113.813 L 83.5384,113.927 L 83.737,114.032 L 83.9506,114.131 L 84.1691,114.23 L 84.3926,114.325 L 84.6409,114.414 L 84.8992,114.493 L 85.1575,114.573 L 85.4356,114.642 L 85.7087,114.707 L 85.9918,114.762 L 86.2898,114.816 L 86.5878,114.861 L 86.8908,114.901 L 87.1987,114.94 L 87.5066,114.96 L 87.8245,114.98 L 88.1423,114.995 L 88.4701,115 L 88.7731,115 L 89.0909,114.995 L 89.4088,114.98 L 89.7266,114.96 L 90.0395,114.93 L 90.3375,114.896 L 90.6404,114.856 L 90.9434,114.806 L 91.2364,114.757 L 91.5195,114.692 L 91.7927,114.628 L 92.0708,114.558 L 92.3241,114.479 L 92.5823,114.394 L 92.8207,114.31 L 93.0492,114.215 L 93.2677,114.121 L 93.4763,114.012 L 93.67,113.907 L 93.8538,113.793 L 94.0276,113.679 L 94.1865,113.56 L 94.3256,113.441 L 94.4547,113.311 L 94.559,113.187 L 94.6534,113.058 L 94.7378,112.929 L 94.8073,112.795 L 94.857,112.661 L 94.8967,112.527 L 94.9116,112.393 L 94.9166,112.254"/>
  </g>
  <g>
    <line style="fill: none; fill-opacity:0; stroke-width: 2; stroke: #000000" x1="374.45" y1="145" x2="124.588" y2="101.399"/>
    <polygon style="fill: #000000" points="125.448,96.4735 114.737,99.6801 123.729,106.325 "/>
    <polygon style="fill: none; fill-opacity:0; stroke-width: 2; stroke: #000000" points="125.448,96.4735 114.737,99.6801 123.729,106.325 "/>
  </g>
  <g>
    <path style="fill: #b7b796" d="M 80.5826 184.424 L 97.1273,184.424 L 97.1273,149.142 L 80.5826,149.142 L 80.5826,184.424z"/>
    <path style="fill: none; fill-opacity:0; stroke-width: 0.02; stroke: #000000" d="M 80.5826 184.424 L 97.1273,184.424 L 97.1273,149.142 L 80.5826,149.142 L 80.5826,184.424"/>
    <path style="fill: none; fill-opacity:0; stroke-width: 0.2; stroke: #494936" d="M 80.5826 184.424 L 97.1273,184.424 L 97.1273,149.142 L 80.5826,149.142 L 80.5826,184.424"/>
    <path style="fill: #c9c9b6" d="M 80.5826 149.142 L 83.7435,146.001 L 99.6954,146.001 L 97.1277,149.142 L 80.5826,149.142z"/>
    <path style="fill: none; fill-opacity:0; stroke-width: 0.02; stroke: #000000" d="M 80.5826 149.142 L 83.7435,146.001 L 99.6954,146.001 L 97.1277,149.142 L 80.5826,149.142"/>
    <path style="fill: none; fill-opacity:0; stroke-width: 0.2; stroke: #494936" d="M 80.5826 149.142 L 83.7435,146.001 L 99.6954,146.001 L 97.1277,149.142 L 80.5826,149.142"/>
    <path style="fill: #7a7a5a" d="M 97.1266 184.424 L 99.6943,179.533 L 99.6943,146 L 97.1266,149.141 L 97.1266,184.423 L 97.1266,184.424z"/>
    <path style="fill: none; fill-opacity:0; stroke-width: 0.02; stroke: #000000" d="M 97.1266 184.424 L 99.6943,179.533 L 99.6943,146 L 97.1266,149.141 L 97.1266,184.423 L 97.1266,184.424"/>
    <path style="fill: none; fill-opacity:0; stroke-width: 0.2; stroke: #494936" d="M 97.1266 184.424 L 99.6943,179.533 L 99.6943,146 L 97.1266,149.141 L 97.1266,184.423"/>
    <path style="fill: #b7b796" d="M 98.4436 186 L 97.1277,184.424 L 80.5826,184.424 L 78.996,186 L 98.4436,186 L 98.4436,186z"/>
    <path style="fill: none; fill-opacity:0; stroke-width: 0.02; stroke: #000000" d="M 98.4436 186 L 97.1277,184.424 L 80.5826,184.424 L 78.996,186 L 98.4436,186 L 98.4436,186"/>
    <path style="fill: none; fill-opacity:0; stroke-width: 0.2; stroke: #494936" d="M 98.4436 186 L 97.1277,184.424 L 80.5826,184.424 L 78.996,186 L 98.4436,186"/>
    <path style="fill: #b7b796" d="M 98.4436 186 L 101.002,180.527 L 99.6943,179.533 L 97.1266,184.424 L 98.4425,186 L 98.4436,186z"/>
    <path style="fill: none; fill-opacity:0; stroke-width: 0.02; stroke: #000000" d="M 98.4436 186 L 101.002,180.527 L 99.6943,179.533 L 97.1266,184.424 L 98.4425,186 L 98.4436,186"/>
    <path style="fill: none; fill-opacity:0; stroke-width: 0.2; stroke: #494936" d="M 98.4436 186 L 101.002,180.527 L 99.6943,179.533 L 97.1266,184.424 L 98.4425,186"/>
    <path style="fill: #b7b796" d="M 97.1266 184.424 L 80.5815,184.424 L 97.1266,184.424z"/>
    <path style="fill: none; fill-opacity:0; stroke-width: 0.2; stroke: #494936" d="M 97.1266 184.424 L 80.5815,184.424"/>
    <path style="fill: #b7b796" d="M 99.6943 179.533 L 97.1266,184.424 L 99.6943,179.533z"/>
    <path style="fill: none; fill-opacity:0; stroke-width: 0.2; stroke: #494936" d="M 99.6943 179.533 L 97.1266,184.424"/>
    <path style="fill: #b7b796" d="M 80.5903 150.77 L 97.0614,150.77 L 80.5903,150.77z"/>
    <path style="fill: none; fill-opacity:0; stroke-width: 0.2; stroke: #494936" d="M 80.5903 150.77 L 97.0614,150.77"/>
    <path style="fill: #b7b796" d="M 80.5759 150.97 L 97.047,150.97 L 80.5759,150.97z"/>
    <path style="fill: none; fill-opacity:0; stroke-width: 0.2; stroke: #494936" d="M 80.5759 150.97 L 97.047,150.97"/>
    <path style="fill: #b7b796" d="M 93.6982 155.192 L 81.694,155.192 L 81.694,156.297 L 83.9126,156.297 L 93.6982,155.192z"/>
    <path style="fill: none; fill-opacity:0; stroke-width: 0.2; stroke: #494936" d="M 93.6982 155.192 L 81.694,155.192 L 81.694,156.297 L 83.9126,156.297"/>
    <path style="fill: #b7b796" d="M 93.6982 157.241 L 81.694,157.241 L 81.694,158.346 L 83.9126,158.346 L 93.6982,157.241z"/>
    <path style="fill: none; fill-opacity:0; stroke-width: 0.2; stroke: #494936" d="M 93.6982 157.241 L 81.694,157.241 L 81.694,158.346 L 83.9126,158.346"/>
    <path style="fill: #b7b796" d="M 93.6982 159.29 L 81.694,159.29 L 81.694,160.395 L 83.9126,160.395 L 93.6982,159.29z"/>
    <path style="fill: none; fill-opacity:0; stroke-width: 0.2; stroke: #494936" d="M 93.6982 159.29 L 81.694,159.29 L 81.694,160.395 L 83.9126,160.395"/>
    <path style="fill: #b7b796" d="M 93.6982 161.339 L 81.694,161.339 L 81.694,162.443 L 83.9126,162.443 L 93.6982,161.339z"/>
    <path style="fill: none; fill-opacity:0; stroke-width: 0.2; stroke: #494936" d="M 93.6982 161.339 L 81.694,161.339 L 81.694,162.443 L 83.9126,162.443"/>
    <path style="fill: #b7b796" d="M 93.6982 163.388 L 81.694,163.388 L 81.694,164.493 L 83.9126,164.493 L 93.6982,163.388z"/>
    <path style="fill: none; fill-opacity:0; stroke-width: 0.2; stroke: #494936" d="M 93.6982 163.388 L 81.694,163.388 L 81.694,164.493 L 83.9126,164.493"/>
    <path style="fill: #b7b796" d="M 93.6982 165.437 L 81.694,165.437 L 81.694,166.541 L 83.9126,166.541 L 93.6982,165.437z"/>
    <path style="fill: none; fill-opacity:0; stroke-width: 0.2; stroke: #494936" d="M 93.6982 165.437 L 81.694,165.437 L 81.694,166.541 L 83.9126,166.541"/>
    <path style="fill: #b7b796" d="M 93.6982 167.485 L 81.694,167.485 L 81.694,168.59 L 83.9126,168.59 L 93.6982,167.485z"/>
    <path style="fill: none; fill-opacity:0; stroke-width: 0.2; stroke: #494936" d="M 93.6982 167.485 L 81.694,167.485 L 81.694,168.59 L 83.9126,168.59"/>
    <path style="fill: #b7b796" d="M 93.6982 169.534 L 81.694,169.534 L 81.694,170.639 L 83.9126,170.639 L 93.6982,169.534z"/>
    <path style="fill: none; fill-opacity:0; stroke-width: 0.2; stroke: #494936" d="M 93.6982 169.534 L 81.694,169.534 L 81.694,170.639 L 83.9126,170.639"/>
    <path style="fill: #b7b796" d="M 93.6982 171.583 L 81.694,171.583 L 81.694,172.688 L 83.9126,172.688 L 93.6982,171.583z"/>
    <path style="fill: none; fill-opacity:0; stroke-width: 0.2; stroke: #494936" d="M 93.6982 171.583 L 81.694,171.583 L 81.694,172.688 L 83.9126,172.688"/>
    <path style="fill: #b7b796" d="M 93.6982 173.632 L 81.694,173.632 L 81.694,174.737 L 83.9126,174.737 L 93.6982,173.632z"/>
    <path style="fill: none; fill-opacity:0; stroke-width: 0.2; stroke: #494936" d="M 93.6982 173.632 L 81.694,173.632 L 81.694,174.737 L 83.9126,174.737"/>
    <path style="fill: #b7b796" d="M 93.6982 175.681 L 81.694,175.681 L 81.694,176.786 L 83.9126,176.786 L 93.6982,175.681z"/>
    <path style="fill: none; fill-opacity:0; stroke-width: 0.2; stroke: #494936" d="M 93.6982 175.681 L 81.694,175.681 L 81.694,176.786 L 83.9126,176.786"/>
    <path style="fill: #b7b796" d="M 93.6982 177.729 L 81.694,177.729 L 81.694,178.834 L 83.9126,178.834 L 93.6982,177.729z"/>
    <path style="fill: none; fill-opacity:0; stroke-width: 0.2; stroke: #494936" d="M 93.6982 177.729 L 81.694,177.729 L 81.694,178.834 L 83.9126,178.834"/>
    <path style="fill: #b7b796" d="M 93.6982 179.779 L 81.694,179.779 L 81.694,180.883 L 83.9126,180.883 L 93.6982,179.779z"/>
    <path style="fill: none; fill-opacity:0; stroke-width: 0.2; stroke: #494936" d="M 93.6982 179.779 L 81.694,179.779 L 81.694,180.883 L 83.9126,180.883"/>
    <path style="fill: #b7b796" d="M 93.6982 181.827 L 81.694,181.827 L 81.694,182.932 L 83.9126,182.932 L 93.6982,181.827z"/>
    <path style="fill: none; fill-opacity:0; stroke-width: 0.2; stroke: #494936" d="M 93.6982 181.827 L 81.694,181.827 L 81.694,182.932 L 83.9126,182.932"/>
  </g>
  <g>
    <line style="fill: none; fill-opacity:0; stroke-width: 2; stroke: #000000" x1="374.45" y1="145" x2="110.755" y2="166.622"/>
    <polygon style="fill: #000000" points="110.346,161.639 100.789,167.439 111.164,171.605 "/>
    <polygon style="fill: none; fill-opacity:0; stroke-width: 2; stroke: #000000" points="110.346,161.639 100.789,167.439 111.164,171.605 "/>
  </g>
  <text font-size="12.8" style="fill: #000000;text-anchor:start;font-family:sans-serif;font-style:normal;font-weight:normal" x="810.5" y="205">
    <tspan x="810.5" y="205"></tspan>
  </text>
  <g>
    <path style="fill: #b7b79d" d="M 92.58 228.527 L 92.58,259.941 L 111.147,259.941 L 111.147,228.527 L 92.58,228.527z"/>
    <path style="fill: none; fill-opacity:0; stroke-width: 0.02; stroke: #494936" d="M 92.58 228.527 L 92.58,259.941 L 111.147,259.941 L 111.147,228.527 L 92.58,228.527"/>
    <path style="fill: #c9c9b6" d="M 92.58 228.527 L 95.096,226 L 113.658,226 L 111.147,228.527 L 92.58,228.527z"/>
    <path style="fill: none; fill-opacity:0; stroke-width: 0.02; stroke: #494936" d="M 92.58 228.527 L 95.096,226 L 113.536,226"/>
    <path style="fill: none; fill-opacity:0; stroke-width: 0.02; stroke: #494936" d="M 113.536 226.128 L 111.147,228.527 L 92.58,228.527"/>
    <path style="fill: #c9c9b6" d="M 93.7241 230.354 L 102.205,230.354 L 102.205,234.476 L 93.7241,234.476 L 93.7241,230.354z"/>
    <path style="fill: none; fill-opacity:0; stroke-width: 0.02; stroke: #626248" d="M 93.7241 230.354 L 102.2,230.354 L 102.2,234.47 L 93.7241,234.47 L 93.7241,230.354"/>
    <path style="fill: none; fill-opacity:0; stroke-width: 0.6; stroke: #ecece7" d="M 94.8683 232.421 L 100.817,232.421"/>
    <path style="fill: #7a7a5a" d="M 111.147 259.941 L 113.658,257.408 L 113.658,226 L 111.147,228.527 L 111.147,259.941z"/>
    <path style="fill: none; fill-opacity:0; stroke-width: 0.02; stroke: #494936" d="M 111.147 259.941 L 113.536,257.536"/>
    <path style="fill: none; fill-opacity:0; stroke-width: 0.02; stroke: #494936" d="M 113.536 226.128 L 111.147,228.527 L 111.147,259.941"/>
    <path style="fill: none; fill-opacity:0; stroke-width: 0.6; stroke: #ecece7" d="M 92.8133 257.869 L 111.142,257.869"/>
    <path style="fill: none; fill-opacity:0; stroke-width: 0.6; stroke: #000000" d="M 92.8133 241.135 L 111.142,241.135"/>
    <path style="fill: none; fill-opacity:0; stroke-width: 0.6; stroke: #494936" d="M 92.58 257.642 L 111.125,257.642"/>
    <path style="fill: none; fill-opacity:0; stroke-width: 0.6; stroke: #000000" d="M 92.58 240.902 L 111.125,240.902"/>
    <path style="fill: none; fill-opacity:0; stroke-width: 0.02; stroke: #ecece7" d="M 93.7241 234.253 L 93.7241,230.354 L 101.972,230.354"/>
  </g>
  <text font-size="12.8" style="fill: #000000;text-anchor:start;font-family:sans-serif;font-style:normal;font-weight:normal" x="88.754" y="132">
    <tspan x="88.754" y="132">CRM</tspan>
  </text>
  <text font-size="12.8" style="fill: #000000;text-anchor:start;font-family:sans-serif;font-style:normal;font-weight:normal" x="76.754" y="202">
    <tspan x="76.754" y="202">Web server</tspan>
  </text>
  <text font-size="12.8" style="fill: #000000;text-anchor:start;font-family:sans-serif;font-style:normal;font-weight:normal" x="74.754" y="281">
    <tspan x="74.754" y="281">Order Management</tspan>
  </text>
  <text font-size="12.8" style="fill: #000000;text-anchor:start;font-family:sans-serif;font-style:normal;font-weight:normal" x="807.754" y="228.9">
    <tspan x="807.754" y="228.9"></tspan>
  </text>
  <g>
    <path style="fill: #b7b79d" d="M 104.9 20.9831 L 104.9,47.5091 L 121.431,47.5091 L 121.431,20.9831 L 104.9,20.9831z"/>
    <path style="fill: #b7b79d" d="M 104.99 21.0838 L 104.99,47.6098 L 121.521,47.6098 L 121.521,21.0838 L 104.99,21.0838z"/>
    <path style="fill: none; fill-opacity:0; stroke-width: 0.02; stroke-dasharray: 4; stroke: #494936" d="M 104.99 21.0838 L 104.99,47.6098 L 121.521,47.6098 L 121.521,21.0838 L 104.99,21.0838"/>
    <path style="fill: #000000" d="M 105.998 28.1401 L 112.543,28.1401 L 112.543,30.4574 L 105.998,30.4574 L 105.998,28.1401z"/>
    <path style="fill: none; fill-opacity:0; stroke-width: 0.02; stroke-dasharray: 4; stroke: #ecece7" d="M 105.998 28.1401 L 112.54,28.1401 L 112.54,30.4539 L 105.998,30.4539 L 105.998,28.1401"/>
    <path style="fill: none; fill-opacity:0; stroke-width: 0.02; stroke-dasharray: 4; stroke: #494936" d="M 106.095 30.3601 L 106.095,28.2339 L 112.443,28.2339"/>
    <path style="fill: #c9c9b6" d="M 104.9 20.9831 L 110.855,15.0004 L 127.392,15.0004 L 121.431,20.9831 L 104.9,20.9831z"/>
    <path style="fill: #c9c9b6" d="M 104.99 21.0838 L 110.956,15.0907 L 127.486,15.0907 L 121.521,21.0838 L 104.99,21.0838z"/>
    <path style="fill: none; fill-opacity:0; stroke-width: 0.02; stroke-dasharray: 4; stroke: #494936" d="M 104.99 21.0838 L 110.956,15.0907 L 127.486,15.0907 L 121.521,21.0838 L 104.99,21.0838"/>
    <path style="fill: #7a7a5a" d="M 121.431 47.5091 L 127.392,41.516 L 127.392,15.0004 L 121.431,20.9831 L 121.431,47.5091z"/>
    <path style="fill: #7a7a5a" d="M 121.521 47.6098 L 127.486,41.6167 L 127.486,15.0907 L 121.521,21.0838 L 121.521,47.6098z"/>
    <path style="fill: none; fill-opacity:0; stroke-width: 0.02; stroke-dasharray: 4; stroke: #494936" d="M 121.521 47.6098 L 127.486,41.6167 L 127.486,15.0907 L 121.521,21.0838 L 121.521,47.6098"/>
    <path style="fill: none; fill-opacity:0; stroke-width: 2.24; stroke-dasharray: 4; stroke: #ecece7" d="M 121.431 23.9814 L 105.091,23.9814"/>
    <path style="fill: none; fill-opacity:0; stroke-width: 2.24; stroke-dasharray: 4; stroke: #494936" d="M 121.431 23.7868 L 105.091,23.7868"/>
    <path style="fill: none; fill-opacity:0; stroke-width: 3.06; stroke-dasharray: 4; stroke: #ecece7" d="M 121.041 24.1794 L 121.045,24.1759"/>
    <path style="fill: none; fill-opacity:0; stroke-width: 3.06; stroke-dasharray: 4; stroke: #494936" d="M 121.041 23.9814 L 121.045,23.9779"/>
    <path style="fill: #000000" d="M 113.693 28.1401 L 120.232,28.1401 L 120.232,30.4574 L 113.693,30.4574 L 113.693,28.1401z"/>
    <path style="fill: none; fill-opacity:0; stroke-width: 0.02; stroke-dasharray: 4; stroke: #ecece7" d="M 113.693 28.1401 L 120.228,28.1401 L 120.228,30.4539 L 113.693,30.4539 L 113.693,28.1401"/>
    <path style="fill: none; fill-opacity:0; stroke-width: 0.02; stroke-dasharray: 4; stroke: #494936" d="M 113.784 30.3601 L 113.784,28.2339 L 120.131,28.2339"/>
  </g>
  <text font-size="12.8" style="fill: #000000;text-anchor:start;font-family:sans-serif;font-style:normal;font-weight:normal" x="73.754" y="67.0004">
    <tspan x="73.754" y="67.0004">Warehouse</tspan>
  </text>
  <g>
    <line style="fill: none; fill-opacity:0; stroke-width: 2; stroke: #000000" x1="374.45" y1="135.5" x2="137.768" y2="45.5255"/>
    <polygon style="fill: #000000" points="139.545,40.8519 128.421,41.9721 135.992,50.1992 "/>
    <polygon style="fill: none; fill-opacity:0; stroke-width: 2; stroke: #000000" points="139.545,40.8519 128.421,41.9721 135.992,50.1992 "/>
  </g>
  <g>
    <path style="fill: #ffe9aa" d="M 242.366 89.3718 L 242.34,87.5211 L 242.246,85.6704 L 242.073,83.8522 L 241.834,82.0339 L 241.514,80.1832 L 241.154,78.3974 L 240.702,76.6766 L 240.196,74.9233 L 239.65,73.2349 L 239.01,71.579 L 238.331,69.988 L 237.585,68.4295 L 236.773,66.936 L 235.921,65.5074 L 235.015,64.1112 L 234.043,62.78 L 233.044,61.5137 L 232.005,60.3448 L 230.913,59.2734 L 229.781,58.2344 L 228.609,57.2603 L 227.397,56.4161 L 226.186,55.6369 L 224.92,54.955 L 223.629,54.3706 L 222.337,53.8186 L 221.018,53.3966 L 219.687,53.0719 L 218.342,52.8446 L 216.983,52.7147 L 215.625,52.6498 L 215.625,52.6498 L 214.28,52.7147 L 212.908,52.8446 L 211.576,53.0719 L 210.245,53.3966 L 208.913,53.8186 L 207.621,54.3706 L 206.329,54.955 L 205.077,55.6369 L 203.839,56.4161 L 202.654,57.2603 L 201.482,58.2344 L 200.363,59.2734 L 199.258,60.3448 L 198.219,61.5137 L 197.207,62.78 L 196.235,64.1112 L 195.329,65.5074 L 194.477,66.936 L 193.664,68.4295 L 192.919,69.988 L 192.239,71.579 L 191.613,73.2349 L 191.041,74.9233 L 190.561,76.6766 L 190.109,78.3974 L 189.736,80.1832 L 189.416,82.0339 L 189.203,83.8522 L 189.03,85.6704 L 188.91,87.5211 L 188.897,89.3718 L 188.897,89.3718 L 188.91,91.2226 L 189.03,93.1382 L 189.203,94.9565 L 189.416,96.8072 L 189.736,98.6254 L 190.109,100.411 L 190.561,102.132 L 191.041,103.885 L 191.613,105.574 L 192.239,107.197 L 192.919,108.821 L 193.664,110.379 L 194.477,111.84 L 195.329,113.301 L 196.235,114.697 L 197.207,116.029 L 198.219,117.262 L 199.258,118.399 L 200.363,119.568 L 201.482,120.574 L 202.654,121.516 L 203.839,122.392 L 205.077,123.172 L 206.329,123.821 L 207.621,124.438 L 208.913,124.958 L 210.245,125.38 L 211.576,125.672 L 212.908,125.964 L 214.28,126.061 L 215.625,126.094 L 215.625,126.094 L 216.983,126.061 L 218.342,125.964 L 219.687,125.672 L 221.018,125.38 L 222.337,124.958 L 223.629,124.438 L 224.92,123.821 L 226.186,123.172 L 227.397,122.392 L 228.609,121.516 L 229.781,120.574 L 230.913,119.568 L 232.005,118.399 L 233.044,117.262 L 234.043,116.029 L 235.015,114.697 L 235.921,113.301 L 236.773,111.84 L 237.585,110.379 L 238.331,108.821 L 239.01,107.197 L 239.65,105.574 L 240.196,103.885 L 240.702,102.132 L 241.154,100.411 L 241.514,98.6254 L 241.834,96.8072 L 242.073,94.9565 L 242.246,93.1382 L 242.34,91.2226 L 242.366,89.3718z"/>
    <path style="fill: #ffe9aa" d="M 200.456 108.658 L 200.43,106.808 L 200.336,104.957 L 200.23,103.139 L 200.043,101.288 L 199.804,99.4696 L 199.511,97.6838 L 199.164,95.9305 L 198.792,94.2097 L 198.365,92.5213 L 197.886,90.8654 L 197.367,89.2744 L 196.794,87.7159 L 196.155,86.2224 L 195.502,84.7288 L 194.81,83.3976 L 194.064,82.0664 L 193.318,80.8001 L 192.492,79.6312 L 191.667,78.5273 L 190.788,77.5208 L 189.909,76.5467 L 188.99,75.7025 L 188.031,74.9233 L 187.072,74.2414 L 186.087,73.657 L 185.088,73.105 L 184.076,72.6829 L 183.05,72.3907 L 182.038,72.131 L 180.999,72.0011 L 179.961,71.9362 L 179.961,71.9362 L 178.922,72.0011 L 177.883,72.131 L 176.844,72.3907 L 175.832,72.6829 L 174.807,73.105 L 173.808,73.657 L 172.836,74.2414 L 171.877,74.9233 L 170.931,75.7025 L 170.013,76.5467 L 169.107,77.5208 L 168.255,78.5273 L 167.402,79.6312 L 166.603,80.8001 L 165.844,82.0664 L 165.098,83.3976 L 164.406,84.7288 L 163.74,86.2224 L 163.114,87.7159 L 162.555,89.2744 L 162.022,90.8654 L 161.556,92.5213 L 161.117,94.2097 L 160.73,95.9305 L 160.397,97.6838 L 160.104,99.4696 L 159.865,101.288 L 159.692,103.139 L 159.558,104.957 L 159.478,106.808 L 159.452,108.658 L 159.452,108.658 L 159.478,110.541 L 159.558,112.425 L 159.692,114.243 L 159.865,116.061 L 160.104,117.912 L 160.397,119.633 L 160.73,121.418 L 161.117,123.172 L 161.556,124.86 L 162.022,126.484 L 162.555,128.107 L 163.114,129.665 L 163.74,131.127 L 164.406,132.588 L 165.098,133.984 L 165.844,135.25 L 166.603,136.549 L 167.402,137.685 L 168.255,138.854 L 169.107,139.861 L 170.013,140.802 L 170.931,141.679 L 171.877,142.426 L 172.836,143.107 L 173.808,143.724 L 174.807,144.244 L 175.832,144.666 L 176.844,144.958 L 177.883,145.185 L 178.922,145.348 L 179.961,145.38 L 179.961,145.38 L 180.999,145.348 L 182.038,145.185 L 183.05,144.958 L 184.076,144.666 L 185.088,144.244 L 186.087,143.724 L 187.072,143.107 L 188.031,142.426 L 188.99,141.679 L 189.909,140.802 L 190.788,139.861 L 191.667,138.854 L 192.492,137.685 L 193.318,136.549 L 194.064,135.25 L 194.81,133.984 L 195.502,132.588 L 196.155,131.127 L 196.794,129.665 L 197.367,128.107 L 197.886,126.484 L 198.365,124.86 L 198.792,123.172 L 199.164,121.418 L 199.511,119.633 L 199.804,117.912 L 200.043,116.061 L 200.23,114.243 L 200.336,112.425 L 200.43,110.541 L 200.456,108.658z"/>
    <path style="fill: #ffe9aa" d="M 174.607 146.127 L 174.594,144.634 L 174.554,143.107 L 174.461,141.614 L 174.341,140.088 L 174.168,138.627 L 173.968,137.166 L 173.755,135.737 L 173.502,134.341 L 173.209,132.945 L 172.876,131.549 L 172.516,130.315 L 172.13,129.016 L 171.717,127.75 L 171.278,126.613 L 170.798,125.477 L 170.306,124.438 L 169.799,123.399 L 169.267,122.425 L 168.694,121.548 L 168.108,120.704 L 167.509,119.925 L 166.883,119.211 L 166.257,118.561 L 165.604,118.009 L 164.939,117.522 L 164.273,117.133 L 163.594,116.743 L 162.888,116.516 L 162.195,116.321 L 161.516,116.223 L 160.81,116.158 L 160.81,116.158 L 160.104,116.223 L 159.399,116.321 L 158.706,116.516 L 158.027,116.743 L 157.334,117.133 L 156.655,117.522 L 156.003,118.009 L 155.363,118.561 L 154.711,119.211 L 154.085,119.925 L 153.486,120.704 L 152.9,121.548 L 152.34,122.425 L 151.794,123.399 L 151.288,124.438 L 150.795,125.477 L 150.329,126.613 L 149.877,127.75 L 149.464,129.016 L 149.078,130.315 L 148.718,131.549 L 148.412,132.945 L 148.119,134.341 L 147.866,135.737 L 147.626,137.166 L 147.426,138.627 L 147.28,140.088 L 147.16,141.614 L 147.053,143.107 L 147,144.634 L 147,146.127 L 147,146.127 L 147,147.621 L 147.053,149.179 L 147.16,150.64 L 147.28,152.166 L 147.426,153.66 L 147.626,155.088 L 147.866,156.517 L 148.119,157.913 L 148.412,159.342 L 148.718,160.706 L 149.078,161.972 L 149.464,163.238 L 149.877,164.472 L 150.329,165.641 L 150.795,166.777 L 151.288,167.849 L 151.794,168.888 L 152.34,169.829 L 152.9,170.706 L 153.486,171.55 L 154.085,172.329 L 154.711,173.044 L 155.363,173.693 L 156.003,174.212 L 156.655,174.732 L 157.334,175.154 L 158.027,175.511 L 158.706,175.771 L 159.399,175.933 L 160.104,176.031 L 160.81,176.096 L 160.81,176.096 L 161.516,176.031 L 162.195,175.933 L 162.888,175.771 L 163.594,175.511 L 164.273,175.154 L 164.939,174.732 L 165.604,174.212 L 166.257,173.693 L 166.883,173.044 L 167.509,172.329 L 168.108,171.55 L 168.694,170.706 L 169.267,169.829 L 169.799,168.888 L 170.306,167.849 L 170.798,166.777 L 171.278,165.641 L 171.717,164.472 L 172.13,163.238 L 172.516,161.972 L 172.876,160.706 L 173.209,159.342 L 173.502,157.913 L 173.755,156.517 L 173.968,155.088 L 174.168,153.66 L 174.341,152.166 L 174.461,150.64 L 174.554,149.179 L 174.594,147.621 L 174.607,146.127z"/>
    <path style="fill: #ffe9aa" d="M 196.9 174.992 L 196.887,173.368 L 196.794,171.712 L 196.647,170.089 L 196.474,168.466 L 196.235,166.875 L 195.955,165.284 L 195.595,163.758 L 195.222,162.199 L 194.77,160.738 L 194.29,159.309 L 193.744,157.881 L 193.172,156.517 L 192.559,155.121 L 191.893,153.855 L 191.187,152.653 L 190.442,151.484 L 189.656,150.413 L 188.83,149.374 L 187.991,148.4 L 187.112,147.491 L 186.193,146.679 L 185.261,145.9 L 184.302,145.185 L 183.33,144.569 L 182.331,144.082 L 181.306,143.627 L 180.294,143.237 L 179.255,142.913 L 178.216,142.718 L 177.164,142.62 L 176.099,142.556 L 176.099,142.556 L 175.047,142.62 L 174.008,142.718 L 172.942,142.913 L 171.917,143.237 L 170.878,143.627 L 169.879,144.082 L 168.881,144.569 L 167.895,145.185 L 166.936,145.9 L 166.017,146.679 L 165.098,147.491 L 164.219,148.4 L 163.367,149.374 L 162.555,150.413 L 161.769,151.484 L 161.023,152.653 L 160.317,153.855 L 159.652,155.121 L 159.026,156.517 L 158.453,157.881 L 157.907,159.309 L 157.414,160.738 L 156.988,162.199 L 156.602,163.758 L 156.242,165.284 L 155.949,166.875 L 155.736,168.466 L 155.536,170.089 L 155.403,171.712 L 155.323,173.368 L 155.297,174.992 L 155.297,174.992 L 155.323,176.648 L 155.403,178.271 L 155.536,179.959 L 155.736,181.583 L 155.949,183.141 L 156.242,184.7 L 156.602,186.291 L 156.988,187.817 L 157.414,189.31 L 157.907,190.772 L 158.453,192.2 L 159.026,193.564 L 159.652,194.928 L 160.317,196.226 L 161.023,197.395 L 161.769,198.532 L 162.555,199.668 L 163.367,200.707 L 164.219,201.681 L 165.098,202.59 L 166.017,203.402 L 166.936,204.181 L 167.895,204.83 L 168.881,205.447 L 169.879,205.999 L 170.878,206.421 L 171.917,206.811 L 172.942,207.136 L 174.008,207.298 L 175.047,207.46 L 176.099,207.46 L 176.099,207.46 L 177.164,207.46 L 178.216,207.298 L 179.255,207.136 L 180.294,206.811 L 181.306,206.421 L 182.331,205.999 L 183.33,205.447 L 184.302,204.83 L 185.261,204.181 L 186.193,203.402 L 187.112,202.59 L 187.991,201.681 L 188.83,200.707 L 189.656,199.668 L 190.442,198.532 L 191.187,197.395 L 191.893,196.194 L 192.559,194.863 L 193.172,193.564 L 193.744,192.2 L 194.29,190.772 L 194.77,189.31 L 195.222,187.817 L 195.595,186.291 L 195.955,184.7 L 196.235,183.141 L 196.474,181.583 L 196.647,179.959 L 196.794,178.271 L 196.887,176.648 L 196.9,174.992z"/>
    <path style="fill: #ffe9aa" d="M 246.828 191.778 L 246.774,189.83 L 246.668,187.882 L 246.455,185.934 L 246.175,184.05 L 245.829,182.102 L 245.403,180.252 L 244.897,178.401 L 244.311,176.583 L 243.645,174.797 L 242.926,173.109 L 242.113,171.42 L 241.261,169.732 L 240.329,168.206 L 239.343,166.68 L 238.265,165.219 L 237.172,163.823 L 236.001,162.556 L 234.775,161.322 L 233.523,160.154 L 232.192,159.082 L 230.847,158.108 L 229.448,157.166 L 228.023,156.355 L 226.545,155.673 L 225.067,155.024 L 223.549,154.472 L 222.031,154.049 L 220.459,153.692 L 218.928,153.465 L 217.343,153.27 L 215.771,153.27 L 215.771,153.27 L 214.2,153.27 L 212.628,153.465 L 211.07,153.692 L 209.525,154.049 L 207.981,154.472 L 206.476,155.024 L 204.984,155.673 L 203.533,156.355 L 202.081,157.166 L 200.709,158.108 L 199.338,159.082 L 198.032,160.154 L 196.767,161.322 L 195.555,162.556 L 194.383,163.823 L 193.265,165.219 L 192.213,166.68 L 191.227,168.206 L 190.282,169.732 L 189.416,171.42 L 188.617,173.109 L 187.911,174.797 L 187.245,176.583 L 186.659,178.401 L 186.153,180.252 L 185.714,182.102 L 185.368,184.05 L 185.075,185.934 L 184.875,187.882 L 184.755,189.83 L 184.715,191.778 L 184.715,191.778 L 184.755,193.694 L 184.875,195.674 L 185.075,197.622 L 185.368,199.538 L 185.714,201.454 L 186.153,203.337 L 186.659,205.155 L 187.245,206.973 L 187.911,208.759 L 188.617,210.48 L 189.416,212.136 L 190.282,213.759 L 191.227,215.35 L 192.213,216.876 L 193.265,218.337 L 194.383,219.669 L 195.555,221.032 L 196.767,222.266 L 198.032,223.403 L 199.338,224.474 L 200.709,225.481 L 202.081,226.325 L 203.533,227.169 L 204.984,227.916 L 206.476,228.565 L 207.981,229.085 L 209.525,229.539 L 211.07,229.864 L 212.628,230.124 L 214.2,230.286 L 215.771,230.318 L 215.771,230.318 L 217.343,230.286 L 218.928,230.124 L 220.459,229.864 L 222.031,229.539 L 223.549,229.085 L 225.067,228.565 L 226.545,227.916 L 228.023,227.169 L 229.448,226.325 L 230.847,225.481 L 232.192,224.474 L 233.523,223.403 L 234.775,222.266 L 236.001,221.032 L 237.172,219.669 L 238.265,218.337 L 239.343,216.876 L 240.329,215.35 L 241.261,213.759 L 242.113,212.136 L 242.926,210.48 L 243.645,208.759 L 244.311,206.973 L 244.897,205.155 L 245.403,203.337 L 245.829,201.454 L 246.175,199.538 L 246.455,197.622 L 246.668,195.674 L 246.774,193.694 L 246.828,191.778z"/>
    <path style="fill: #ffe9aa" d="M 264.06 102.944 L 264.047,101.515 L 263.967,100.054 L 263.821,98.5929 L 263.661,97.1643 L 263.421,95.7357 L 263.155,94.3396 L 262.822,92.9434 L 262.436,91.5472 L 262.023,90.2485 L 261.57,88.9173 L 261.051,87.6835 L 260.491,86.4497 L 259.905,85.2808 L 259.253,84.1119 L 258.587,83.0405 L 257.854,82.0339 L 257.109,80.9949 L 256.336,80.1183 L 255.511,79.2091 L 254.672,78.3974 L 253.819,77.6831 L 252.914,77.0013 L 251.995,76.3844 L 251.063,75.8649 L 250.104,75.3454 L 249.145,74.9558 L 248.159,74.6635 L 247.174,74.3713 L 246.162,74.1765 L 245.163,74.1116 L 244.151,74.0791 L 244.151,74.0791 L 243.125,74.1116 L 242.127,74.1765 L 241.114,74.3713 L 240.129,74.6635 L 239.157,74.9558 L 238.185,75.3454 L 237.239,75.8649 L 236.294,76.3844 L 235.375,77.0013 L 234.469,77.6831 L 233.603,78.3974 L 232.778,79.2091 L 231.952,80.1183 L 231.18,80.9949 L 230.434,82.0339 L 229.715,83.0405 L 229.036,84.1119 L 228.383,85.2808 L 227.797,86.4497 L 227.251,87.6835 L 226.718,88.9173 L 226.265,90.2485 L 225.853,91.5472 L 225.466,92.9434 L 225.133,94.3396 L 224.867,95.7357 L 224.641,97.1643 L 224.454,98.5929 L 224.334,100.054 L 224.268,101.515 L 224.228,102.944 L 224.228,102.944 L 224.268,104.405 L 224.334,105.833 L 224.454,107.327 L 224.641,108.756 L 224.867,110.217 L 225.133,111.613 L 225.466,113.009 L 225.853,114.308 L 226.265,115.704 L 226.718,116.97 L 227.251,118.204 L 227.797,119.47 L 228.383,120.607 L 229.036,121.776 L 229.715,122.847 L 230.434,123.886 L 231.18,124.86 L 231.952,125.802 L 232.778,126.678 L 233.603,127.49 L 234.469,128.237 L 235.375,128.919 L 236.294,129.503 L 237.239,130.055 L 238.185,130.542 L 239.157,130.932 L 240.129,131.256 L 241.114,131.549 L 242.127,131.711 L 243.125,131.776 L 244.151,131.873 L 244.151,131.873 L 245.163,131.776 L 246.162,131.711 L 247.174,131.549 L 248.159,131.256 L 249.145,130.932 L 250.104,130.542 L 251.063,130.055 L 251.995,129.503 L 252.914,128.919 L 253.819,128.237 L 254.672,127.49 L 255.511,126.678 L 256.336,125.802 L 257.109,124.86 L 257.854,123.886 L 258.587,122.847 L 259.253,121.776 L 259.905,120.607 L 260.491,119.47 L 261.051,118.204 L 261.57,116.97 L 262.023,115.704 L 262.436,114.308 L 262.822,113.009 L 263.155,111.613 L 263.421,110.217 L 263.661,108.756 L 263.821,107.327 L 263.967,105.833 L 264.047,104.405 L 264.06,102.944z"/>
    <path style="fill: #ffe9aa" d="M 269.707 140.055 L 269.667,138.627 L 269.614,137.166 L 269.481,135.705 L 269.307,134.244 L 269.068,132.782 L 268.801,131.386 L 268.482,130.023 L 268.096,128.691 L 267.683,127.328 L 267.23,126.061 L 266.711,124.795 L 266.151,123.594 L 265.579,122.425 L 264.926,121.224 L 264.26,120.185 L 263.568,119.146 L 262.822,118.139 L 262.023,117.262 L 261.237,116.353 L 260.398,115.542 L 259.546,114.827 L 258.654,114.113 L 257.748,113.529 L 256.816,113.009 L 255.857,112.49 L 254.898,112.1 L 253.926,111.775 L 252.927,111.483 L 251.942,111.353 L 250.943,111.256 L 249.944,111.191 L 249.944,111.191 L 248.932,111.256 L 247.946,111.353 L 246.947,111.483 L 245.975,111.775 L 245.003,112.1 L 244.031,112.49 L 243.085,113.009 L 242.167,113.529 L 241.248,114.113 L 240.355,114.827 L 239.503,115.542 L 238.664,116.353 L 237.852,117.262 L 237.093,118.139 L 236.347,119.146 L 235.614,120.185 L 234.948,121.224 L 234.323,122.425 L 233.75,123.594 L 233.191,124.795 L 232.684,126.061 L 232.205,127.328 L 231.792,128.691 L 231.433,130.023 L 231.1,131.386 L 230.807,132.782 L 230.594,134.244 L 230.421,135.705 L 230.287,137.166 L 230.207,138.627 L 230.194,140.055 L 230.194,140.055 L 230.207,141.484 L 230.287,142.945 L 230.421,144.439 L 230.594,145.867 L 230.807,147.328 L 231.1,148.725 L 231.433,150.121 L 231.792,151.419 L 232.205,152.783 L 232.684,154.082 L 233.191,155.316 L 233.75,156.517 L 234.323,157.718 L 234.948,158.887 L 235.614,159.959 L 236.347,160.965 L 237.093,161.972 L 237.852,162.848 L 238.664,163.758 L 239.503,164.569 L 240.355,165.284 L 241.248,165.998 L 242.167,166.615 L 243.085,167.102 L 244.031,167.621 L 245.003,168.011 L 245.975,168.336 L 246.947,168.628 L 247.946,168.79 L 248.932,168.888 L 249.944,168.92 L 249.944,168.92 L 250.943,168.888 L 251.942,168.79 L 252.927,168.628 L 253.926,168.336 L 254.898,168.011 L 255.857,167.621 L 256.816,167.102 L 257.748,166.615 L 258.654,165.998 L 259.546,165.284 L 260.398,164.569 L 261.237,163.758 L 262.023,162.848 L 262.822,161.972 L 263.568,160.965 L 264.26,159.959 L 264.926,158.887 L 265.579,157.718 L 266.151,156.517 L 266.711,155.316 L 267.23,154.082 L 267.683,152.783 L 268.096,151.419 L 268.482,150.121 L 268.801,148.725 L 269.068,147.328 L 269.307,145.867 L 269.481,144.439 L 269.614,142.945 L 269.667,141.484 L 269.707,140.055z"/>
    <path style="fill: #ffe9aa" d="M 265.845 170.738 L 265.818,168.336 L 265.738,165.965 L 265.632,163.595 L 265.459,161.193 L 265.232,158.855 L 264.953,156.517 L 264.633,154.277 L 264.247,152.036 L 263.834,149.861 L 263.395,147.751 L 262.888,145.673 L 262.329,143.659 L 261.743,141.711 L 261.104,139.861 L 260.438,138.042 L 259.746,136.386 L 259,134.763 L 258.241,133.269 L 257.428,131.808 L 256.603,130.51 L 255.75,129.308 L 254.885,128.204 L 253.979,127.198 L 253.06,126.256 L 252.101,125.477 L 251.156,124.86 L 250.17,124.276 L 249.198,123.854 L 248.226,123.594 L 247.24,123.399 L 246.242,123.334 L 246.242,123.334 L 245.243,123.399 L 244.257,123.594 L 243.259,123.854 L 242.286,124.276 L 241.328,124.86 L 240.355,125.477 L 239.423,126.256 L 238.504,127.198 L 237.599,128.204 L 236.706,129.308 L 235.854,130.51 L 235.028,131.808 L 234.243,133.269 L 233.457,134.763 L 232.724,136.386 L 232.019,138.042 L 231.353,139.861 L 230.727,141.711 L 230.128,143.659 L 229.595,145.673 L 229.089,147.751 L 228.623,149.861 L 228.21,152.036 L 227.85,154.277 L 227.531,156.517 L 227.251,158.855 L 227.025,161.193 L 226.851,163.595 L 226.718,165.965 L 226.638,168.336 L 226.612,170.738 L 226.612,170.738 L 226.638,173.141 L 226.718,175.576 L 226.851,177.946 L 227.025,180.284 L 227.251,182.654 L 227.531,184.927 L 227.85,187.2 L 228.21,189.44 L 228.623,191.616 L 229.089,193.791 L 229.595,195.869 L 230.128,197.85 L 230.727,199.765 L 231.353,201.616 L 232.019,203.402 L 232.724,205.155 L 233.457,206.779 L 234.243,208.272 L 235.028,209.668 L 235.854,210.999 L 236.706,212.233 L 237.599,213.337 L 238.504,214.344 L 239.423,215.253 L 240.355,216 L 241.328,216.682 L 242.286,217.201 L 243.259,217.623 L 244.257,217.948 L 245.243,218.143 L 246.242,218.208 L 246.242,218.208 L 247.24,218.143 L 248.226,217.948 L 249.198,217.623 L 250.17,217.201 L 251.156,216.682 L 252.101,216 L 253.06,215.253 L 253.979,214.344 L 254.885,213.337 L 255.75,212.233 L 256.603,210.999 L 257.428,209.668 L 258.241,208.272 L 259,206.779 L 259.746,205.155 L 260.438,203.402 L 261.104,201.616 L 261.743,199.765 L 262.329,196.194 L 262.888,195.869 L 263.395,193.791 L 263.834,191.616 L 264.247,189.44 L 264.633,187.2 L 264.953,184.927 L 265.232,182.654 L 265.459,180.284 L 265.632,177.946 L 265.738,175.576 L 265.818,173.141 L 265.845,170.738z"/>
    <path style="fill: #ffe9aa" d="M 248.905 142.198 L 248.852,139.796 L 248.692,137.393 L 248.439,134.99 L 248.093,132.62 L 247.64,130.315 L 247.081,128.01 L 246.428,125.704 L 245.669,123.464 L 244.843,121.256 L 243.911,119.178 L 242.872,117.1 L 241.767,115.087 L 240.568,113.139 L 239.29,111.256 L 237.932,109.47 L 236.52,107.782 L 235.015,106.158 L 233.444,104.697 L 231.832,103.236 L 230.141,101.905 L 228.396,100.703 L 226.612,99.5995 L 224.787,98.5929 L 222.923,97.6838 L 221.005,96.9046 L 219.061,96.2227 L 217.103,95.7357 L 215.119,95.2487 L 213.121,94.9889 L 211.11,94.7941 L 209.073,94.7616 L 209.073,94.7616 L 207.062,94.7941 L 205.051,94.9889 L 203.053,95.2487 L 201.056,95.7357 L 199.098,96.2227 L 197.154,96.9046 L 195.249,97.6838 L 193.385,98.5929 L 191.534,99.5995 L 189.776,100.703 L 188.031,101.905 L 186.326,103.236 L 184.702,104.697 L 183.157,106.158 L 181.639,107.782 L 180.214,109.47 L 178.882,111.256 L 177.59,113.139 L 176.392,115.087 L 175.3,117.1 L 174.261,119.178 L 173.342,121.256 L 172.503,123.464 L 171.731,125.704 L 171.091,128.01 L 170.545,130.315 L 170.066,132.62 L 169.72,134.99 L 169.467,137.393 L 169.307,139.796 L 169.267,142.198 L 169.267,142.198 L 169.307,144.569 L 169.467,146.971 L 169.72,149.374 L 170.066,151.744 L 170.545,154.082 L 171.091,156.355 L 171.731,158.66 L 172.503,160.9 L 173.342,163.108 L 174.261,165.219 L 175.3,167.264 L 176.392,169.277 L 177.59,171.225 L 178.882,173.109 L 180.214,174.894 L 181.639,176.583 L 183.157,178.206 L 184.702,179.667 L 186.326,181.161 L 188.031,182.46 L 189.776,183.661 L 191.534,184.765 L 193.385,185.771 L 195.249,186.68 L 197.154,187.46 L 199.098,188.142 L 201.056,188.629 L 203.053,189.083 L 205.051,189.375 L 207.062,189.57 L 209.073,189.603 L 209.073,189.603 L 211.11,189.57 L 213.121,189.375 L 215.119,189.083 L 217.103,188.629 L 219.061,188.142 L 221.005,187.46 L 222.923,186.68 L 224.787,185.771 L 226.612,184.765 L 228.396,183.661 L 230.141,182.46 L 231.832,181.161 L 233.444,179.667 L 235.015,178.206 L 236.52,176.583 L 237.932,174.894 L 239.29,173.109 L 240.568,171.225 L 241.767,169.277 L 242.872,167.264 L 243.911,165.219 L 244.843,163.108 L 245.669,160.9 L 246.428,158.66 L 247.081,156.355 L 247.64,154.082 L 248.093,151.744 L 248.439,149.374 L 248.692,146.971 L 248.852,144.569 L 248.905,142.198z"/>
    <path style="fill: #ffe9aa" d="M 215.931 89.0796 L 242.286,80.8651 L 241.953,79.0468 L 241.541,77.2935 L 241.088,75.5077 L 240.542,73.7544 L 239.956,72.066 L 239.29,70.4426 L 238.597,68.8192 L 237.798,67.3256 L 236.986,65.7996 L 236.107,64.371 L 235.162,63.0073 L 234.176,61.741 L 233.137,60.5072 L 232.059,59.3059 L 230.94,58.2344 L 229.781,57.2603 L 228.609,56.2863 L 227.371,55.4745 L 226.119,54.7602 L 224.854,54.0459 L 223.535,53.4615 L 222.217,53.0069 L 220.885,52.5848 L 219.54,52.3251 L 218.182,52.1303 L 216.81,52.0004 L 215.452,52.0004 L 214.08,52.0329 L 212.708,52.2277 L 211.377,52.5199 L 210.032,52.8446 L 208.7,53.3641 L 207.381,53.8511 L 206.09,54.533 L 204.838,55.2473 L 203.612,56.059 L 202.401,56.9681 L 201.229,57.9097 L 200.123,59.0136 L 199.031,60.1176 L 197.979,61.3189 L 196.98,62.5852 L 196.035,63.9489 L 195.143,65.3775 L 194.29,66.8061 L 193.491,68.3971 L 192.745,69.9556 L 192.066,71.6115 L 191.48,73.2674 L 190.908,74.9558 L 190.415,76.7415 L 190.002,78.5273 L 189.656,80.3456 L 189.363,82.1638 L 215.931,89.0796z"/>
    <path style="fill: none; fill-opacity:0; stroke-width: 0.02; stroke: #805d00" d="M 242.286 80.8001 L 241.94,78.9819 L 241.541,77.1961 L 241.074,75.4428 L 240.542,73.7219 L 239.929,72.0336 L 239.277,70.4101 L 238.571,68.8192 L 237.772,67.2282 L 236.946,65.7996 L 236.094,64.371 L 235.135,62.9423 L 234.176,61.6761 L 233.124,60.4423 L 232.045,59.3059 L 230.94,58.2019 L 229.781,57.2279 L 228.596,56.2863 L 227.358,55.4421 L 226.106,54.6628 L 224.854,54.0135 L 223.535,53.4615 L 222.204,53.0069 L 220.872,52.5848 L 219.527,52.3251 L 218.182,52.1303 L 216.797,52.0004 L 215.438,52.0004 L 214.08,52.0329 L 212.722,52.2277 L 211.363,52.5199 L 210.032,52.8446 L 208.7,53.3316 L 207.395,53.8511 L 206.116,54.533 L 204.838,55.2473 L 203.626,56.059 L 202.414,56.9681 L 201.255,57.8772 L 200.123,58.9487 L 199.045,60.1176 L 197.993,61.3189 L 196.994,62.5527 L 196.048,63.9489 L 195.143,65.345 L 194.29,66.8061 L 193.491,68.3646 L 192.772,69.8906 L 192.08,71.5141 L 191.48,73.2349 L 190.921,74.9233 L 190.442,76.6766 L 190.002,78.4299 L 189.656,80.2481 L 189.376,82.0664"/>
    <path style="fill: #ffe9aa" d="M 180.094 108.334 L 193.385,79.8585 L 192.559,78.7546 L 191.693,77.6182 L 190.814,76.5792 L 189.909,75.7025 L 188.99,74.8259 L 188.031,74.0791 L 187.046,73.3648 L 186.073,72.8128 L 185.048,72.2933 L 184.036,71.8712 L 182.997,71.6115 L 181.958,71.3842 L 180.92,71.2543 L 179.881,71.2543 L 178.829,71.2543 L 177.79,71.4816 L 176.751,71.6764 L 175.726,72.066 L 174.714,72.4881 L 173.715,73.0726 L 172.716,73.6895 L 171.757,74.3713 L 170.798,75.183 L 169.879,76.0922 L 168.987,77.0662 L 168.135,78.1052 L 167.282,79.2091 L 166.483,80.4105 L 165.724,81.6768 L 164.979,83.0405 L 164.286,84.4691 L 163.647,85.8977 L 163.034,87.4562 L 162.475,89.0472 L 161.942,90.6706 L 161.476,92.3265 L 161.037,94.0149 L 160.664,95.8006 L 160.331,97.5864 L 160.064,99.4047 L 159.851,101.223 L 159.665,103.074 L 159.532,104.957 L 159.478,106.808 L 159.452,108.658 L 159.492,110.574 L 159.572,112.457 L 159.731,114.275 L 180.094,108.334z"/>
    <path style="fill: none; fill-opacity:0; stroke-width: 0.02; stroke: #805d00" d="M 193.318 79.7936 L 192.492,78.6247 L 191.653,77.5532 L 190.774,76.5467 L 189.856,75.6376 L 188.91,74.7609 L 187.964,74.0466 L 186.992,73.3323 L 185.994,72.7479 L 184.995,72.2933 L 183.956,71.8712 L 182.93,71.579 L 181.905,71.3842 L 180.866,71.2543 L 179.801,71.2543 L 178.789,71.2868 L 177.75,71.4816 L 176.685,71.7089 L 175.672,72.066 L 174.674,72.5206 L 173.648,73.105 L 172.676,73.6895 L 171.717,74.4687 L 170.772,75.2804 L 169.839,76.1246 L 168.947,77.1312 L 168.095,78.1702 L 167.269,79.3066 L 166.47,80.443 L 165.684,81.7742 L 164.979,83.1054 L 164.273,84.5015 L 163.62,85.9951 L 163.021,87.4887 L 162.448,89.0796 L 161.942,90.7355 L 161.476,92.359 L 161.037,94.1123 L 160.65,95.8331 L 160.331,97.6514 L 160.064,99.4371 L 159.825,101.288 L 159.665,103.139 L 159.532,104.989 L 159.478,106.808 L 159.452,108.756 L 159.518,110.606 L 159.598,112.457 L 159.731,114.308"/>
    <path style="fill: #ffe9aa" d="M 176.392 174.667 L 155.004,173.693 L 155.004,175.349 L 155.044,177.005 L 155.15,178.726 L 155.323,180.382 L 155.523,182.037 L 155.776,183.661 L 156.109,185.284 L 156.455,186.875 L 156.895,188.369 L 157.361,189.927 L 157.854,191.421 L 158.44,192.85 L 159.026,194.246 L 159.692,195.609 L 160.371,196.876 L 161.103,198.109 L 161.889,199.278 L 162.688,200.35 L 163.527,201.454 L 164.406,202.395 L 165.311,203.337 L 166.257,204.181 L 167.216,204.928 L 168.175,205.61 L 169.187,206.227 L 170.212,206.746 L 171.251,207.201 L 172.303,207.558 L 173.355,207.85 L 174.421,208.045 L 175.499,208.175 L 176.591,208.175 L 177.643,208.077 L 178.722,207.98 L 179.788,207.753 L 180.84,207.46 L 181.905,207.038 L 182.917,206.584 L 183.956,206.032 L 184.928,205.382 L 185.914,204.636 L 186.872,203.889 L 187.778,203.012 L 188.697,202.103 L 189.536,201.097 L 190.375,199.993 L 176.392,174.667z"/>
    <path style="fill: none; fill-opacity:0; stroke-width: 0.02; stroke: #805d00" d="M 155.03 173.693 L 154.99,175.349 L 155.07,177.005 L 155.15,178.661 L 155.323,180.349 L 155.523,182.005 L 155.79,183.661 L 156.109,185.284 L 156.482,186.843 L 156.895,188.369 L 157.334,189.895 L 157.854,191.388 L 158.4,192.817 L 159.026,194.213 L 159.665,195.577 L 160.357,196.843 L 161.077,198.077 L 161.849,199.246 L 162.648,200.35 L 163.487,201.389 L 164.366,202.363 L 165.272,203.304 L 166.19,204.116 L 167.149,204.863 L 168.148,205.577 L 169.134,206.194 L 170.146,206.681 L 171.184,207.201 L 172.25,207.493 L 173.302,207.85 L 174.354,208.012 L 175.433,208.175 L 176.511,208.175 L 177.577,208.11 L 178.642,208.012 L 179.708,207.785 L 180.76,207.46 L 181.825,207.038 L 182.837,206.616 L 183.876,206.032 L 184.862,205.415 L 185.82,204.733 L 186.779,203.954 L 187.698,203.077 L 188.617,202.168 L 189.483,201.161 L 190.295,200.122"/>
    <path style="fill: #ffe9aa" d="M 244.444 102.262 L 263.261,111.645 L 263.581,110.249 L 263.821,108.853 L 264.047,107.392 L 264.18,105.963 L 264.313,104.535 L 264.34,103.074 L 264.34,101.548 L 264.313,100.087 L 264.207,98.6579 L 264.06,97.2293 L 263.847,95.7682 L 263.594,94.372 L 263.301,92.9759 L 262.955,91.5472 L 262.556,90.2485 L 262.103,88.9173 L 261.597,87.651 L 261.077,86.3523 L 260.505,85.2159 L 259.892,84.0145 L 259.239,82.8781 L 258.52,81.8391 L 257.801,80.8326 L 257.015,79.8585 L 256.23,78.9819 L 255.404,78.1702 L 254.552,77.3584 L 253.659,76.6766 L 252.754,75.9948 L 251.822,75.4428 L 250.863,74.9233 L 249.917,74.5012 L 248.918,74.1116 L 247.933,73.8518 L 246.934,73.6245 L 245.922,73.4947 L 244.923,73.3648 L 243.924,73.4297 L 242.912,73.4947 L 241.9,73.657 L 240.915,73.8843 L 239.916,74.144 L 238.93,74.5012 L 237.958,74.9558 L 244.444,102.262z"/>
    <path style="fill: none; fill-opacity:0; stroke-width: 0.02; stroke: #805d00" d="M 261.53 116.938 L 263.248,111.71 L 263.568,110.282 L 263.821,108.918 L 264.02,107.457 L 264.18,105.996 L 264.287,104.567 L 264.327,103.139 L 264.34,101.645 L 264.3,100.151 L 264.207,98.6904 L 264.06,97.2617 L 263.847,95.8331 L 263.594,94.4045 L 263.315,93.0083 L 262.968,91.6122 L 262.556,90.3134 L 262.103,88.9498 L 261.637,87.6835 L 261.091,86.4497 L 260.518,85.2483 L 259.905,84.047 L 259.253,82.9755 L 258.56,81.9365 L 257.828,80.8651 L 257.069,79.9235 L 256.256,78.9819 L 255.431,78.1702 L 254.578,77.3909 L 253.686,76.7091 L 252.781,76.0597 L 251.862,75.4753 L 250.916,74.9233 L 249.944,74.5012 L 248.985,74.1116 L 248,73.8518 L 247.001,73.657 L 245.989,73.4947 L 244.977,73.3648 L 243.951,73.3648 L 242.952,73.4947 L 241.94,73.657 L 240.941,73.8518 L 239.956,74.1116 L 238.984,74.5012 L 238.011,74.9233"/>
    <path style="fill: #ffe9aa" d="M 247.121 140.445 L 268.309,152.296 L 268.735,150.77 L 269.081,149.212 L 269.401,147.588 L 269.654,145.965 L 269.827,144.341 L 269.947,142.718 L 269.987,141.03 L 269.987,139.406 L 269.907,137.75 L 269.787,136.062 L 269.574,134.438 L 269.321,132.88 L 268.988,131.256 L 268.628,129.698 L 268.176,128.107 L 267.669,126.646 L 267.123,125.217 L 266.498,123.756 L 265.832,122.392 L 247.121,140.445z"/>
    <path style="fill: none; fill-opacity:0; stroke-width: 0.02; stroke: #805d00" d="M 265.619 157.686 L 268.282,152.394 L 268.682,150.835 L 269.081,149.212 L 269.387,147.621 L 269.64,145.965 L 269.814,144.341 L 269.947,142.718 L 270,141.03 L 269.987,139.406 L 269.907,137.685 L 269.76,136.062 L 269.574,134.406 L 269.321,132.782 L 268.988,131.191 L 268.615,129.633 L 268.149,128.075 L 267.656,126.581 L 267.07,125.087 L 266.471,123.659 L 265.792,122.263 L 261.53,116.938"/>
    <path style="fill: #ffe9aa" d="M 246.228 171.777 L 239.543,216.876 L 240.528,217.591 L 241.527,218.208 L 242.526,218.76 L 243.565,219.149 L 244.577,219.409 L 245.589,219.539 L 246.641,219.571 L 247.667,219.409 L 248.679,219.214 L 249.704,218.824 L 250.703,218.37 L 251.702,217.785 L 252.687,217.039 L 253.659,216.194 L 254.592,215.253 L 255.524,214.181 L 256.43,213.045 L 257.308,211.714 L 258.161,210.318 L 258.973,208.857 L 259.746,207.266 L 260.491,205.61 L 261.21,203.824 L 261.89,201.973 L 262.502,200.09 L 263.088,198.077 L 263.648,196.031 L 264.14,193.856 L 264.58,191.713 L 264.993,189.44 L 265.339,187.167 L 265.659,184.862 L 265.912,182.492 L 266.125,180.089 L 266.258,177.719 L 266.378,175.284 L 266.404,172.849 L 266.404,170.414 L 266.351,168.011 L 266.244,165.576 L 266.085,163.173 L 265.885,160.77 L 265.619,158.433 L 246.228,171.777z"/>
    <path style="fill: none; fill-opacity:0; stroke-width: 0.02; stroke: #805d00" d="M 239.596 216.941 L 240.595,217.623 L 241.581,218.305 L 242.593,218.792 L 243.605,219.182 L 244.644,219.409 L 245.656,219.571 L 246.681,219.604 L 247.707,219.409 L 248.745,219.214 L 249.757,218.824 L 250.756,218.37 L 251.755,217.753 L 252.741,216.974 L 253.699,216.162 L 254.658,215.188 L 255.577,214.149 L 256.469,212.948 L 257.335,211.714 L 258.187,210.285 L 259,208.792 L 259.772,207.201 L 260.518,205.545 L 261.237,203.791 L 261.903,201.941 L 262.542,199.96 L 263.102,198.012 L 263.661,195.869 L 264.154,193.791 L 264.593,191.616 L 264.993,189.375 L 265.352,187.07 L 265.672,184.7 L 265.912,182.395 L 266.125,180.024 L 266.284,177.622 L 266.378,175.187 L 266.404,172.751 L 266.404,170.316 L 266.338,167.881 L 266.244,165.446 L 266.071,163.011 L 265.845,160.673 L 265.619,158.335"/>
    <path style="fill: #ffe9aa" d="M 161.529 146.127 L 160.517,115.542 L 159.771,115.704 L 159.066,115.899 L 158.32,116.223 L 157.601,116.581 L 156.895,117.1 L 156.202,117.587 L 155.523,118.204 L 154.857,118.918 L 154.191,119.633 L 153.566,120.444 L 152.953,121.386 L 152.367,122.36 L 151.794,123.367 L 151.275,124.438 L 150.756,125.574 L 150.276,126.711 L 149.823,127.945 L 149.41,129.276 L 148.998,130.542 L 148.638,131.938 L 148.332,133.367 L 148.039,134.796 L 147.759,136.224 L 147.546,137.75 L 147.373,139.244 L 147.213,140.802 L 147.093,142.296 L 147.04,143.887 L 147,145.445 L 147,146.971 L 147.04,148.562 L 147.12,150.121 L 147.24,151.647 L 147.373,153.205 L 147.573,154.699 L 147.786,156.16 L 148.052,157.686 L 148.345,159.082 L 148.678,160.478 L 149.038,161.842 L 149.45,163.173 L 149.863,164.407 L 150.329,165.641 L 150.822,166.842 L 151.328,168.011 L 151.874,169.05 L 152.447,170.056 L 153.033,170.966 L 153.659,171.907 L 154.271,172.719 L 154.937,173.466 L 161.529,146.127z"/>
    <path style="fill: none; fill-opacity:0; stroke-width: 0.02; stroke: #805d00" d="M 160.517 115.542 L 159.811,115.704 L 159.079,115.899 L 158.36,116.223 L 157.667,116.581 L 156.961,117.035 L 156.269,117.522 L 155.603,118.139 L 154.951,118.788 L 154.298,119.535 L 153.699,120.347 L 153.073,121.191 L 152.5,122.133 L 151.941,123.074 L 151.408,124.146 L 150.875,125.25 L 150.409,126.386 L 149.943,127.587 L 149.53,128.854 L 149.131,130.12 L 148.785,131.451 L 148.452,132.782 L 148.132,134.179 L 147.866,135.607 L 147.626,137.036 L 147.426,138.562 L 147.28,140.055 L 147.133,141.549 L 147.053,143.075 L 147,144.634 L 147,146.16 L 147,147.686 L 147.08,149.212 L 147.16,150.77 L 147.28,152.231 L 147.453,153.725 L 147.626,155.218 L 147.866,156.679 L 148.159,158.108 L 148.452,159.504 L 148.785,160.9 L 149.157,162.199 L 149.544,163.465 L 149.956,164.764 L 150.409,165.901 L 150.902,167.069 L 151.421,168.173 L 151.954,169.245 L 152.527,170.154 L 153.086,171.095 L 153.699,171.94 L 154.325,172.751 L 154.964,173.531"/>
    <path style="fill: #ffe9aa" d="M 215.478 195.317 L 185.168,198.889 L 185.368,200.674 L 185.621,202.428 L 185.967,204.181 L 186.406,205.869 L 186.872,207.623 L 187.445,209.279 L 188.071,210.902 L 188.777,212.493 L 189.563,214.052 L 190.402,215.578 L 191.281,216.974 L 192.253,218.402 L 193.265,219.766 L 194.344,221.032 L 195.476,222.234 L 196.647,223.37 L 197.899,224.442 L 199.151,225.448 L 200.47,226.325 L 201.815,227.234 L 203.226,227.948 L 204.638,228.662 L 206.063,229.214 L 207.554,229.766 L 209.046,230.188 L 210.551,230.546 L 212.042,230.773 L 213.574,230.935 L 215.119,231 L 216.637,230.968 L 218.182,230.838 L 219.7,230.611 L 221.205,230.383 L 222.696,229.961 L 224.188,229.539 L 225.626,228.955 L 227.065,228.305 L 228.463,227.559 L 229.848,226.747 L 231.18,225.903 L 232.458,224.929 L 233.71,223.89 L 234.922,222.786 L 236.08,221.617 L 237.186,220.383 L 238.211,219.019 L 239.21,217.688 L 240.129,216.227 L 241.008,214.766 L 241.82,213.272 L 242.539,211.714 L 243.205,210.09 L 243.818,208.434 L 244.337,206.746 L 215.478,195.317z"/>
    <path style="fill: none; fill-opacity:0; stroke-width: 0.02; stroke: #805d00" d="M 185.194 198.921 L 185.368,200.707 L 185.634,202.428 L 185.967,204.214 L 186.406,205.967 L 186.899,207.655 L 187.445,209.279 L 188.084,210.902 L 188.777,212.526 L 189.563,214.052 L 190.402,215.578 L 191.281,216.974 L 192.253,218.402 L 193.291,219.766 L 194.344,221.032 L 195.476,222.234 L 196.647,223.37 L 197.899,224.442 L 199.151,225.448 L 200.47,226.325 L 201.815,227.234 L 203.2,227.948 L 204.611,228.662 L 206.05,229.214 L 207.541,229.734 L 209.019,230.188 L 210.524,230.513 L 212.029,230.773 L 213.547,230.935 L 215.079,231 L 216.61,230.968 L 218.129,230.838 L 219.647,230.611 L 221.178,230.383 L 222.67,229.961 L 224.135,229.507 L 225.6,228.955 L 227.025,228.338 L 228.423,227.559 L 229.795,226.779 L 231.113,225.903 L 232.418,224.929 L 233.67,223.922 L 234.869,222.818 L 236.027,221.649 L 237.119,220.415 L 238.185,219.117 L 239.17,217.721 L 240.102,216.324 L 240.981,214.798 L 241.767,213.337 L 242.513,211.714 L 243.179,210.123 L 243.765,208.467 L 244.311,206.811"/>
  </g>
  <text font-size="12.8" style="fill: #000000;text-anchor:start;font-family:sans-serif;font-style:normal;font-weight:normal" x="213.004" y="142.655">
    <tspan x="213.004" y="142.655">Network</tspan>
  </text>
  <g>
    <rect style="fill: #e6e6fa" x="374.45" y="126" width="101.1" height="38"/>
    <rect style="fill: none; fill-opacity:0; stroke-width: 2; stroke: #000000" x="374.45" y="126" width="101.1" height="38"/>
    <text font-size="12.8" style="fill: #000000;text-anchor:middle;font-family:sans-serif;font-style:normal;font-weight:normal" x="425" y="148.9">
      <tspan x="425" y="148.9">Connections</tspan>
    </text>
  </g>
  <g>
    <rect style="fill: #e6e6fa" x="480.4" y="125.7" width="101.1" height="38"/>
    <rect style="fill: none; fill-opacity:0; stroke-width: 2; stroke: #000000" x="480.4" y="125.7" width="101.1" height="38"/>
    <text font-size="12.8" style="fill: #000000;text-anchor:middle;font-family:sans-serif;font-style:normal;font-weight:normal" x="530.95" y="148.6">
      <tspan x="530.95" y="148.6">Scheduling</tspan>
    </text>
  </g>
  <g>
    <rect style="fill: #e6e6fa" x="586.4" y="125.7" width="101.1" height="38"/>
    <rect style="fill: none; fill-opacity:0; stroke-width: 2; stroke: #000000" x="586.4" y="125.7" width="101.1" height="38"/>
    <text font-size="12.8" style="fill: #000000;text-anchor:middle;font-family:sans-serif;font-style:normal;font-weight:normal" x="636.95" y="148.6">
      <tspan x="636.95" y="148.6">Tresholds</tspan>
    </text>
  </g>
  <g>
    <rect style="fill: #e6e6fa" x="390" y="243" width="180" height="38"/>
    <rect style="fill: none; fill-opacity:0; stroke-width: 2; stroke: #000000" x="390" y="243" width="180" height="38"/>
    <text font-size="12.8" style="fill: #000000;text-anchor:middle;font-family:sans-serif;font-style:normal;font-weight:normal" x="480" y="265.9">
      <tspan x="480" y="265.9">Configuration</tspan>
    </text>
  </g>
  <text font-size="12.8" style="fill: #000000;text-anchor:start;font-family:sans-serif;font-style:normal;font-weight:700" x="617" y="90.2932">
    <tspan x="617" y="90.2932">bischeck</tspan>
  </text>
  <g>
    <rect style="fill: #e6e6fa" x="388.7" y="170.1" width="180" height="38"/>
    <rect style="fill: none; fill-opacity:0; stroke-width: 2; stroke: #000000" x="388.7" y="170.1" width="180" height="38"/>
    <text font-size="12.8" style="fill: #000000;text-anchor:middle;font-family:sans-serif;font-style:normal;font-weight:normal" x="478.7" y="193">
      <tspan x="478.7" y="193">Fast cache</tspan>
    </text>
  </g>
  <g>
    <rect style="fill: #e5e5e5" x="765.2" y="107.1" width="74.3" height="38"/>
    <rect style="fill: none; fill-opacity:0; stroke-width: 2; stroke: #000000" x="765.2" y="107.1" width="74.3" height="38"/>
    <text font-size="12.8" style="fill: #000000;text-anchor:middle;font-family:sans-serif;font-style:normal;font-weight:normal" x="802.35" y="130">
      <tspan x="802.35" y="130">NSCA</tspan>
    </text>
  </g>
  <g>
    <rect style="fill: #e6e6fa" x="583.4" y="182.1" width="101.1" height="70"/>
    <rect style="fill: none; fill-opacity:0; stroke-width: 2; stroke: #000000" x="583.4" y="182.1" width="101.1" height="70"/>
    <text font-size="12.8" style="fill: #000000;text-anchor:middle;font-family:sans-serif;font-style:normal;font-weight:normal" x="633.95" y="213">
      <tspan x="633.95" y="213">Server</tspan>
      <tspan x="633.95" y="229">Integration</tspan>
    </text>
  </g>
  <g>
    <rect style="fill: #e5e5e5" x="762.124" y="213.1" width="90.85" height="38"/>
    <rect style="fill: none; fill-opacity:0; stroke-width: 2; stroke: #000000" x="762.124" y="213.1" width="90.85" height="38"/>
    <text font-size="12.8" style="fill: #000000;text-anchor:middle;font-family:sans-serif;font-style:normal;font-weight:normal" x="807.549" y="236">
      <tspan x="807.549" y="236">OpenTSDB</tspan>
    </text>
  </g>
  <g>
    <line style="fill: none; fill-opacity:0; stroke-width: 2; stroke: #000000" x1="685.497" y1="223.132" x2="751.199" y2="230.821"/>
    <polygon style="fill: #000000" points="750.617,235.788 761.131,231.984 751.78,225.855 "/>
    <polygon style="fill: none; fill-opacity:0; stroke-width: 2; stroke: #000000" points="750.617,235.788 761.131,231.984 751.78,225.855 "/>
  </g>
  <g>
    <path style="fill: none; fill-opacity:0; stroke-width: 2; stroke: #000000" d="M 749.816,66.5638 A 194.238,194.238 0 0 0 432.375,124.995"/>
    <polygon style="fill: #000000" points="754.948,72.022 744.587,67.8222 749.991,66.3937 752.091,61.2129 "/>
    <polygon style="fill: none; fill-opacity:0; stroke-width: 2; stroke: #000000" points="754.948,72.022 744.587,67.8222 749.991,66.3937 752.091,61.2129 "/>
  </g>
  <g>
    <rect style="fill: #e5e5e5" x="764.1" y="266" width="77.7" height="38"/>
    <rect style="fill: none; fill-opacity:0; stroke-width: 2; stroke: #000000" x="764.1" y="266" width="77.7" height="38"/>
    <text font-size="12.8" style="fill: #000000;text-anchor:middle;font-family:sans-serif;font-style:normal;font-weight:normal" x="802.95" y="288.9">
      <tspan x="802.95" y="288.9">Graphite</tspan>
    </text>
  </g>
  <g>
    <line style="fill: none; fill-opacity:0; stroke-width: 2; stroke: #000000" x1="685.494" y1="237.809" x2="752.927" y2="264.902"/>
    <polygon style="fill: #000000" points="751.063,269.542 762.206,268.63 754.791,260.263 "/>
    <polygon style="fill: none; fill-opacity:0; stroke-width: 2; stroke: #000000" points="751.063,269.542 762.206,268.63 754.791,260.263 "/>
  </g>
  <g>
    <rect style="fill: #e5e5e5" x="766" y="150.7" width="74.3" height="38"/>
    <rect style="fill: none; fill-opacity:0; stroke-width: 2; stroke: #000000" x="766" y="150.7" width="74.3" height="38"/>
    <text font-size="12.8" style="fill: #000000;text-anchor:middle;font-family:sans-serif;font-style:normal;font-weight:normal" x="803.15" y="173.6">
      <tspan x="803.15" y="173.6">NRDP</tspan>
    </text>
  </g>
  <g>
    <line style="fill: none; fill-opacity:0; stroke-width: 2; stroke: #000000" x1="685.508" y1="198.593" x2="755.647" y2="173.416"/>
    <polygon style="fill: #000000" points="757.336,178.122 765.059,170.038 753.958,168.71 "/>
    <polygon style="fill: none; fill-opacity:0; stroke-width: 2; stroke: #000000" points="757.336,178.122 765.059,170.038 753.958,168.71 "/>
  </g>
  <g>
    <rect style="fill: #e5e5e5" x="756.426" y="54.7" width="87.45" height="38"/>
    <rect style="fill: none; fill-opacity:0; stroke-width: 2; stroke: #000000" x="756.426" y="54.7" width="87.45" height="38"/>
    <text font-size="12.8" style="fill: #000000;text-anchor:middle;font-family:sans-serif;font-style:normal;font-weight:normal" x="800.151" y="77.6">
      <tspan x="800.151" y="77.6">Livestatus</tspan>
    </text>
  </g>
  <g>
    <line style="fill: none; fill-opacity:0; stroke-width: 2; stroke: #000000" x1="675.673" y1="181.101" x2="768.643" y2="100.885"/>
    <polygon style="fill: #000000" points="771.91,104.671 776.215,94.3526 765.377,97.0995 "/>
    <polygon style="fill: none; fill-opacity:0; stroke-width: 2; stroke: #000000" points="771.91,104.671 776.215,94.3526 765.377,97.0995 "/>
  </g>
  <g>
    <rect style="fill: #e6e6fa" x="485.8" y="292.1" width="180" height="38"/>
    <rect style="fill: none; fill-opacity:0; stroke-width: 2; stroke: #000000" x="485.8" y="292.1" width="180" height="38"/>
    <text font-size="12.8" style="fill: #000000;text-anchor:middle;font-family:sans-serif;font-style:normal;font-weight:normal" x="575.8" y="315">
      <tspan x="575.8" y="315">Management</tspan>
    </text>
  </g>
  <g>
    <rect style="fill: #695276" x="362.8" y="424.1" width="332" height="113.193"/>
    <rect style="fill: none; fill-opacity:0; stroke-width: 2; stroke: #000000" x="362.8" y="424.1" width="332" height="113.193"/>
  </g>
  <text font-size="12.8" style="fill: #000000;text-anchor:start;font-family:sans-serif;font-style:normal;font-weight:700" x="626" y="417.294">
    <tspan x="626" y="417.294">bisconf</tspan>
  </text>
  <g>
    <rect style="fill: #e6e6fa" x="378.8" y="445.394" width="119.2" height="38"/>
    <rect style="fill: none; fill-opacity:0; stroke-width: 2; stroke: #000000" x="378.8" y="445.394" width="119.2" height="38"/>
    <text font-size="12.8" style="fill: #000000;text-anchor:middle;font-family:sans-serif;font-style:normal;font-weight:normal" x="438.4" y="468.294">
      <tspan x="438.4" y="468.294">Configuration</tspan>
    </text>
  </g>
  <g>
    <rect style="fill: #e6e6fa" x="522.8" y="445.394" width="106.35" height="38"/>
    <rect style="fill: none; fill-opacity:0; stroke-width: 2; stroke: #000000" x="522.8" y="445.394" width="106.35" height="38"/>
    <text font-size="12.8" style="fill: #000000;text-anchor:middle;font-family:sans-serif;font-style:normal;font-weight:normal" x="575.975" y="468.294">
      <tspan x="575.975" y="468.294">Management</tspan>
    </text>
  </g>
  <g>
    <line style="fill: none; fill-opacity:0; stroke-width: 2; stroke: #000000" x1="437.818" y1="444.406" x2="436.99" y2="415.977"/>
    <polygon style="fill: #000000" points="441.988,415.832 436.699,405.982 431.992,416.123 "/>
    <polygon style="fill: none; fill-opacity:0; stroke-width: 2; stroke: #000000" points="441.988,415.832 436.699,405.982 431.992,416.123 "/>
  </g>
  <g>
    <line style="fill: none; fill-opacity:0; stroke-width: 2; stroke: #000000" x1="435" y1="369" x2="435" y2="292"/>
    <polygon style="fill: #000000" points="440,292 435,282 430,292 "/>
    <polygon style="fill: none; fill-opacity:0; stroke-width: 2; stroke: #000000" points="440,292 435,282 430,292 "/>
  </g>
  <g>
    <line style="fill: none; fill-opacity:0; stroke-width: 2; stroke: #000000" x1="575.952" y1="444.4" x2="575.835" y2="342.094"/>
    <polygon style="fill: #000000" points="580.835,342.089 575.824,332.094 570.835,342.1 "/>
    <polygon style="fill: none; fill-opacity:0; stroke-width: 2; stroke: #000000" points="580.835,342.089 575.824,332.094 570.835,342.1 "/>
  </g>
  <g>
    <polygon style="fill: #ffffff" points="430,376.294 441.775,376.294 445.7,380.219 445.7,395.919 430,395.919 "/>
    <polygon style="fill: none; fill-opacity:0; stroke-width: 2; stroke: #000000" points="430,376.294 441.775,376.294 445.7,380.219 445.7,395.919 430,395.919 "/>
    <polyline style="fill: none; fill-opacity:0; stroke-width: 2; stroke: #000000" points="441.775,376.294 441.775,380.219 445.7,380.219 445.7,380.219 "/>
  </g>
  <g>
    <polygon style="fill: #ffffff" points="421.8,381.394 433.575,381.394 437.5,385.319 437.5,401.019 421.8,401.019 "/>
    <polygon style="fill: none; fill-opacity:0; stroke-width: 2; stroke: #000000" points="421.8,381.394 433.575,381.394 437.5,385.319 437.5,401.019 421.8,401.019 "/>
    <polyline style="fill: none; fill-opacity:0; stroke-width: 2; stroke: #000000" points="433.575,381.394 433.575,385.319 437.5,385.319 437.5,385.319 "/>
  </g>
  <g>
    <rect style="fill: #e6e6fa" x="459.8" y="489.394" width="106.35" height="38"/>
    <rect style="fill: none; fill-opacity:0; stroke-width: 2; stroke: #000000" x="459.8" y="489.394" width="106.35" height="38"/>
    <text font-size="12.8" style="fill: #000000;text-anchor:middle;font-family:sans-serif;font-style:normal;font-weight:normal" x="512.975" y="512.294">
      <tspan x="512.975" y="512.294">Web server</tspan>
    </text>
  </g>
  <g>
    <rect style="fill: #bfbfbf" x="262" y="319" width="34" height="30"/>
    <ellipse style="fill: #bfbfbf" cx="279" cy="349" rx="17" ry="5"/>
    <ellipse style="fill: #bfbfbf" cx="279" cy="319" rx="17" ry="5"/>
    <ellipse style="fill: none; fill-opacity:0; stroke-width: 2; stroke: #000000" cx="279" cy="319" rx="17" ry="5"/>
    <path style="fill: none; fill-opacity:0; stroke-width: 2; stroke: #000000" d="M 296 319 L 296,349 C 296,351.761 288.389,354 279,354 C 269.611,354 262,351.761 262,349 L 262,319"/>
    <text font-size="12.8" style="fill: #000000;text-anchor:middle;font-family:sans-serif;font-style:normal;font-weight:normal" x="279" y="366">
      <tspan x="279" y="366"></tspan>
    </text>
  </g>
  <text font-size="12.8" style="fill: #000000;text-anchor:start;font-family:sans-serif;font-style:normal;font-weight:normal" x="264" y="378">
    <tspan x="264" y="378">redis</tspan>
  </text>
  <g>
    <path style="fill: none; fill-opacity:0; stroke-width: 2; stroke: #000000" d="M 388.9,217.6 A 116.463,116.463 0 0 0 286.191,302.705"/>
    <polygon style="fill: #000000" points="280.768,301.696 283.951,312.414 290.615,303.437 "/>
    <polygon style="fill: none; fill-opacity:0; stroke-width: 2; stroke: #000000" points="280.768,301.696 283.951,312.414 290.615,303.437 "/>
  </g>
  <g>
    <rect style="fill: #bfbfbf" x="217.8" y="384.1" width="34" height="30"/>
    <ellipse style="fill: #bfbfbf" cx="234.8" cy="414.1" rx="17" ry="5"/>
    <ellipse style="fill: #bfbfbf" cx="234.8" cy="384.1" rx="17" ry="5"/>
    <ellipse style="fill: none; fill-opacity:0; stroke-width: 2; stroke: #000000" cx="234.8" cy="384.1" rx="17" ry="5"/>
    <path style="fill: none; fill-opacity:0; stroke-width: 2; stroke: #000000" d="M 251.8 384.1 L 251.8,414.1 C 251.8,416.861 244.189,419.1 234.8,419.1 C 225.411,419.1 217.8,416.861 217.8,414.1 L 217.8,384.1"/>
    <text font-size="12.8" style="fill: #000000;text-anchor:middle;font-family:sans-serif;font-style:normal;font-weight:normal" x="234.8" y="431.1">
      <tspan x="234.8" y="431.1"></tspan>
    </text>
  </g>
  <g>
    <rect style="fill: #bfbfbf" x="304.8" y="384.1" width="34" height="30"/>
    <ellipse style="fill: #bfbfbf" cx="321.8" cy="414.1" rx="17" ry="5"/>
    <ellipse style="fill: #bfbfbf" cx="321.8" cy="384.1" rx="17" ry="5"/>
    <ellipse style="fill: none; fill-opacity:0; stroke-width: 2; stroke: #000000" cx="321.8" cy="384.1" rx="17" ry="5"/>
    <path style="fill: none; fill-opacity:0; stroke-width: 2; stroke: #000000" d="M 338.8 384.1 L 338.8,414.1 C 338.8,416.861 331.189,419.1 321.8,419.1 C 312.411,419.1 304.8,416.861 304.8,414.1 L 304.8,384.1"/>
    <text font-size="12.8" style="fill: #000000;text-anchor:middle;font-family:sans-serif;font-style:normal;font-weight:normal" x="321.8" y="431.1">
      <tspan x="321.8" y="431.1"></tspan>
    </text>
  </g>
  <line style="fill: none; fill-opacity:0; stroke-width: 2; stroke: #000000" x1="268.463" y1="353.938" x2="249.978" y2="381.164"/>
  <line style="fill: none; fill-opacity:0; stroke-width: 2; stroke: #000000" x1="294.105" y1="352.413" x2="311.872" y2="379.436"/>
  <line style="fill: none; fill-opacity:0; stroke-width: 2; stroke: #000000" x1="252.806" y1="399.1" x2="303.804" y2="399.1"/>
  <g>
    <rect style="fill: #e6e6fa" x="388.9" y="198.6" width="180" height="38"/>
    <rect style="fill: none; fill-opacity:0; stroke-width: 2; stroke: #000000" x="388.9" y="198.6" width="180" height="38"/>
    <text font-size="12.8" style="fill: #000000;text-anchor:middle;font-family:sans-serif;font-style:normal;font-weight:normal" x="478.9" y="221.5">
      <tspan x="478.9" y="221.5">Persistent cache</tspan>
    </text>
  </g>
  <text font-size="15.7929" style="fill: #000000;text-anchor:start;font-family:sans-serif;font-style:normal;font-weight:normal" x="141" y="360">
    <tspan x="141" y="360">?</tspan>
  </text>
  <g>
    <line style="fill: none; fill-opacity:0; stroke-width: 2; stroke: #000000" x1="168.86" y1="352.248" x2="250.161" y2="339.135"/>
    <polygon style="fill: #000000" points="168.063,347.312 158.987,353.841 169.656,357.185 "/>
    <polygon style="fill: none; fill-opacity:0; stroke-width: 2; stroke: #000000" points="168.063,347.312 158.987,353.841 169.656,357.185 "/>
    <polygon style="fill: #000000" points="250.957,344.072 260.033,337.543 249.365,334.199 "/>
    <polygon style="fill: none; fill-opacity:0; stroke-width: 2; stroke: #000000" points="250.957,344.072 260.033,337.543 249.365,334.199 "/>
  </g>
</svg>
